testCID.ufo
<glyph name="cid17914" format="1" >
	<advance width="1000"/>
	<outline>
		<contour>
			<point x="371" y="754" type="line"/>
			<point x="371" y="628" type="line"/>
			<point x="957" y="628" type="line"/>
			<point x="957" y="754" type="line"/>
		</contour>
		<contour>
			<point x="565" y="824" type="line"/>
			<point x="583" y="780" />
			<point x="605" y="721" />
			<point x="614" y="685" type="curve"/>
			<point x="761" y="728" type="line"/>
			<point x="749" y="763" />
			<point x="724" y="820" />
			<point x="704" y="861" type="curve"/>
		</contour>
		<contour>
			<point x="539" y="458" type="line"/>
			<point x="774" y="458" type="line"/>
			<point x="774" y="388" type="line"/>
			<point x="539" y="388" type="line"/>
		</contour>
		<contour>
			<point x="408" y="585" type="line"/>
			<point x="408" y="260" type="line"/>
			<point x="914" y="260" type="line"/>
			<point x="914" y="585" type="line"/>
		</contour>
		<contour>
			<point x="593" y="313" type="line"/>
			<point x="593" y="57" type="line"/>
			<point x="593" y="45" />
			<point x="588" y="42" />
			<point x="572" y="42" type="curve"/>
			<point x="557" y="41" />
			<point x="498" y="42" />
			<point x="458" y="44" type="curve"/>
			<point x="477" y="6" />
			<point x="499" y="-53" />
			<point x="506" y="-95" type="curve"/>
			<point x="578" y="-95" />
			<point x="636" y="-93" />
			<point x="683" y="-72" type="curve"/>
			<point x="731" y="-51" />
			<point x="743" y="-15" />
			<point x="743" y="52" type="curve"/>
			<point x="743" y="313" type="line"/>
		</contour>
		<contour>
			<point x="430" y="240" type="line"/>
			<point x="399" y="169" />
			<point x="348" y="87" />
			<point x="302" y="35" type="curve"/>
			<point x="334" y="16" />
			<point x="387" y="-26" />
			<point x="413" y="-49" type="curve"/>
			<point x="460" y="13" />
			<point x="521" y="113" />
			<point x="561" y="198" type="curve"/>
		</contour>
		<contour>
			<point x="758" y="194" type="line"/>
			<point x="791" y="122" />
			<point x="832" y="25" />
			<point x="848" y="-36" type="curve"/>
			<point x="970" y="14" type="line"/>
			<point x="950" y="74" />
			<point x="910" y="165" />
			<point x="874" y="236" type="curve"/>
		</contour>
		<contour>
			<point x="146" y="855" type="line"/>
			<point x="146" y="-95" type="line"/>
			<point x="283" y="-95" type="line"/>
			<point x="283" y="855" type="line"/>
		</contour>
		<contour>
			<point x="50" y="654" type="line"/>
			<point x="45" y="571" />
			<point x="31" y="458" />
			<point x="11" y="389" type="curve"/>
			<point x="118" y="353" type="line"/>
			<point x="136" y="432" />
			<point x="151" y="554" />
			<point x="152" y="641" type="curve"/>
		</contour>
		<contour>
			<point x="258" y="664" type="line"/>
			<point x="279" y="590" />
			<point x="301" y="492" />
			<point x="310" y="434" type="curve"/>
			<point x="411" y="470" type="line"/>
			<point x="401" y="526" />
			<point x="375" y="621" />
			<point x="352" y="693" type="curve"/>
		</contour>
	</outline>
</glyph>
<glyph name="cid17917" format="1" >
	<advance width="1000"/>
	<outline>
		<contour>
			<point x="717" y="541" type="line"/>
			<point x="717" y="425" type="line"/>
			<point x="875" y="425" type="line"/>
			<point x="875" y="541" type="line"/>
		</contour>
		<contour>
			<point x="368" y="770" type="line"/>
			<point x="368" y="568" type="line"/>
			<point x="488" y="568" type="line"/>
			<point x="488" y="646" type="line"/>
			<point x="836" y="646" type="line"/>
			<point x="836" y="572" type="line"/>
			<point x="962" y="572" type="line"/>
			<point x="962" y="770" type="line"/>
		</contour>
		<contour>
			<point x="831" y="541" type="line"/>
			<point x="831" y="263" type="line"/>
			<point x="831" y="255" />
			<point x="829" y="253" />
			<point x="821" y="252" type="curve"/>
			<point x="813" y="252" />
			<point x="792" y="252" />
			<point x="773" y="253" type="curve"/>
			<point x="787" y="221" />
			<point x="801" y="173" />
			<point x="805" y="138" type="curve"/>
			<point x="850" y="138" />
			<point x="884" y="140" />
			<point x="914" y="159" type="curve"/>
			<point x="944" y="179" />
			<point x="951" y="211" />
			<point x="951" y="260" type="curve"/>
			<point x="951" y="541" type="line"/>
		</contour>
		<contour>
			<point x="421" y="601" type="line"/>
			<point x="400" y="467" />
			<point x="359" y="341" />
			<point x="290" y="262" type="curve"/>
			<point x="313" y="238" />
			<point x="351" y="185" />
			<point x="365" y="159" type="curve"/>
			<point x="452" y="258" />
			<point x="507" y="416" />
			<point x="538" y="579" type="curve"/>
		</contour>
		<contour>
			<point x="552" y="529" type="line"/>
			<point x="552" y="505" type="line"/>
			<point x="531" y="250" />
			<point x="458" y="81" />
			<point x="325" y="-8" type="curve"/>
			<point x="353" y="-26" />
			<point x="399" y="-74" />
			<point x="418" y="-102" type="curve"/>
			<point x="558" y="0" />
			<point x="646" y="204" />
			<point x="675" y="512" type="curve"/>
			<point x="598" y="532" type="line"/>
			<point x="576" y="529" type="line"/>
		</contour>
		<contour>
			<point x="388" y="245" type="line"/>
			<point x="436" y="208" />
			<point x="497" y="155" />
			<point x="527" y="124" type="curve"/>
			<point x="587" y="239" type="line"/>
			<point x="555" y="268" />
			<point x="495" y="312" />
			<point x="444" y="346" type="curve"/>
		</contour>
		<contour>
			<point x="479" y="529" type="line"/>
			<point x="455" y="409" type="line"/>
			<point x="583" y="409" type="line"/>
			<point x="583" y="529" type="line"/>
		</contour>
		<contour>
			<point x="669" y="541" type="line"/>
			<point x="669" y="66" type="line"/>
			<point x="669" y="-12" />
			<point x="679" y="-35" />
			<point x="700" y="-54" type="curve"/>
			<point x="720" y="-72" />
			<point x="753" y="-79" />
			<point x="780" y="-79" type="curve"/>
			<point x="799" y="-79" />
			<point x="831" y="-79" />
			<point x="852" y="-79" type="curve"/>
			<point x="873" y="-79" />
			<point x="899" y="-76" />
			<point x="917" y="-68" type="curve"/>
			<point x="939" y="-60" />
			<point x="953" y="-46" />
			<point x="962" y="-23" type="curve"/>
			<point x="971" y="-2" />
			<point x="977" y="45" />
			<point x="979" y="87" type="curve"/>
			<point x="944" y="98" />
			<point x="899" y="121" />
			<point x="874" y="143" type="curve"/>
			<point x="873" y="101" />
			<point x="871" y="67" />
			<point x="869" y="52" type="curve"/>
			<point x="866" y="37" />
			<point x="862" y="31" />
			<point x="857" y="29" type="curve"/>
			<point x="853" y="27" />
			<point x="846" y="26" />
			<point x="840" y="26" type="curve"/>
			<point x="830" y="26" />
			<point x="816" y="26" />
			<point x="809" y="26" type="curve"/>
			<point x="802" y="26" />
			<point x="796" y="27" />
			<point x="792" y="31" type="curve"/>
			<point x="788" y="35" />
			<point x="787" y="46" />
			<point x="787" y="66" type="curve"/>
			<point x="787" y="541" type="line"/>
		</contour>
		<contour>
			<point x="565" y="826" type="line"/>
			<point x="580" y="788" />
			<point x="596" y="736" />
			<point x="600" y="703" type="curve"/>
			<point x="760" y="746" type="line"/>
			<point x="753" y="778" />
			<point x="736" y="827" />
			<point x="719" y="862" type="curve"/>
		</contour>
		<contour>
			<point x="142" y="855" type="line"/>
			<point x="142" y="-95" type="line"/>
			<point x="275" y="-95" type="line"/>
			<point x="275" y="855" type="line"/>
		</contour>
		<contour>
			<point x="50" y="654" type="line"/>
			<point x="45" y="571" />
			<point x="31" y="457" />
			<point x="11" y="389" type="curve"/>
			<point x="120" y="352" type="line"/>
			<point x="138" y="431" />
			<point x="153" y="553" />
			<point x="154" y="641" type="curve"/>
		</contour>
		<contour>
			<point x="244" y="664" type="line"/>
			<point x="263" y="596" />
			<point x="284" y="506" />
			<point x="292" y="452" type="curve"/>
			<point x="394" y="489" type="line"/>
			<point x="384" y="540" />
			<point x="360" y="628" />
			<point x="340" y="694" type="curve"/>
		</contour>
	</outline>
</glyph>
<glyph name="cid17919" format="1" >
	<advance width="1000"/>
	<outline>
		<contour>
			<point x="60" y="791" type="line"/>
			<point x="60" y="623" type="line"/>
			<point x="194" y="623" type="line"/>
			<point x="194" y="676" type="line"/>
			<point x="800" y="676" type="line"/>
			<point x="800" y="623" type="line"/>
			<point x="940" y="623" type="line"/>
			<point x="940" y="791" type="line"/>
		</contour>
		<contour>
			<point x="407" y="837" type="line"/>
			<point x="422" y="798" />
			<point x="440" y="744" />
			<point x="447" y="713" type="curve"/>
			<point x="619" y="748" type="line"/>
			<point x="609" y="780" />
			<point x="587" y="830" />
			<point x="570" y="867" type="curve"/>
		</contour>
		<contour>
			<point x="263" y="223" type="line"/>
			<point x="263" y="86" type="line"/>
			<point x="263" y="-36" />
			<point x="300" y="-77" />
			<point x="453" y="-77" type="curve"/>
			<point x="484" y="-77" />
			<point x="582" y="-77" />
			<point x="614" y="-77" type="curve"/>
			<point x="733" y="-77" />
			<point x="773" y="-41" />
			<point x="790" y="106" type="curve"/>
			<point x="751" y="115" />
			<point x="688" y="136" />
			<point x="658" y="159" type="curve"/>
			<point x="652" y="67" />
			<point x="645" y="54" />
			<point x="602" y="54" type="curve"/>
			<point x="573" y="54" />
			<point x="493" y="54" />
			<point x="470" y="54" type="curve"/>
			<point x="419" y="54" />
			<point x="410" y="57" />
			<point x="410" y="88" type="curve"/>
			<point x="410" y="223" type="line"/>
		</contour>
		<contour>
			<point x="407" y="228" type="line"/>
			<point x="439" y="185" />
			<point x="484" y="126" />
			<point x="504" y="91" type="curve"/>
			<point x="624" y="159" type="line"/>
			<point x="600" y="193" />
			<point x="553" y="249" />
			<point x="521" y="288" type="curve"/>
		</contour>
		<contour>
			<point x="747" y="165" type="line"/>
			<point x="782" y="105" />
			<point x="830" y="23" />
			<point x="851" y="-26" type="curve"/>
			<point x="974" y="36" type="line"/>
			<point x="949" y="85" />
			<point x="898" y="162" />
			<point x="862" y="219" type="curve"/>
		</contour>
		<contour>
			<point x="107" y="207" type="line"/>
			<point x="86" y="139" />
			<point x="48" y="60" />
			<point x="14" y="5" type="curve"/>
			<point x="145" y="-58" type="line"/>
			<point x="175" y="0" />
			<point x="208" y="86" />
			<point x="232" y="153" type="curve"/>
		</contour>
		<contour>
			<point x="134" y="420" type="line"/>
			<point x="174" y="393" />
			<point x="224" y="352" />
			<point x="246" y="323" type="curve"/>
			<point x="334" y="406" type="line"/>
			<point x="309" y="435" />
			<point x="258" y="472" />
			<point x="217" y="496" type="curve"/>
		</contour>
		<contour>
			<point x="235" y="624" type="line"/>
			<point x="235" y="517" type="line"/>
			<point x="438" y="517" type="line"/>
			<point x="438" y="624" type="line"/>
		</contour>
		<contour>
			<point x="616" y="631" type="line"/>
			<point x="616" y="523" type="line"/>
			<point x="833" y="523" type="line"/>
			<point x="833" y="631" type="line"/>
		</contour>
		<contour>
			<point x="768" y="631" type="line"/>
			<point x="768" y="490" type="line"/>
			<point x="768" y="479" />
			<point x="764" y="477" />
			<point x="752" y="477" type="curve"/>
			<point x="742" y="476" />
			<point x="702" y="476" />
			<point x="674" y="478" type="curve"/>
			<point x="689" y="449" />
			<point x="707" y="406" />
			<point x="714" y="372" type="curve"/>
			<point x="772" y="372" />
			<point x="819" y="372" />
			<point x="856" y="389" type="curve"/>
			<point x="895" y="405" />
			<point x="905" y="433" />
			<point x="905" y="488" type="curve"/>
			<point x="905" y="631" type="line"/>
		</contour>
		<contour>
			<point x="530" y="631" type="line"/>
			<point x="530" y="370" type="line"/>
			<point x="530" y="255" />
			<point x="565" y="222" />
			<point x="688" y="222" type="curve"/>
			<point x="714" y="222" />
			<point x="800" y="222" />
			<point x="827" y="222" type="curve"/>
			<point x="921" y="222" />
			<point x="957" y="253" />
			<point x="971" y="361" type="curve"/>
			<point x="936" y="369" />
			<point x="883" y="387" />
			<point x="857" y="406" type="curve"/>
			<point x="852" y="345" />
			<point x="846" y="334" />
			<point x="814" y="334" type="curve"/>
			<point x="793" y="334" />
			<point x="724" y="334" />
			<point x="706" y="334" type="curve"/>
			<point x="667" y="334" />
			<point x="660" y="338" />
			<point x="660" y="372" type="curve"/>
			<point x="660" y="631" type="line"/>
		</contour>
		<contour>
			<point x="223" y="681" type="line"/>
			<point x="187" y="593" />
			<point x="115" y="515" />
			<point x="32" y="468" type="curve"/>
			<point x="55" y="443" />
			<point x="92" y="388" />
			<point x="106" y="362" type="curve"/>
			<point x="205" y="426" />
			<point x="292" y="532" />
			<point x="341" y="649" type="curve"/>
		</contour>
		<contour>
			<point x="390" y="624" type="line"/>
			<point x="390" y="606" type="line"/>
			<point x="354" y="433" />
			<point x="241" y="322" />
			<point x="69" y="279" type="curve"/>
			<point x="94" y="252" />
			<point x="125" y="200" />
			<point x="139" y="167" type="curve"/>
			<point x="342" y="233" />
			<point x="472" y="360" />
			<point x="522" y="603" type="curve"/>
			<point x="439" y="628" type="line"/>
			<point x="415" y="624" type="line"/>
		</contour>
	</outline>
</glyph>
<glyph name="cid17920" format="1" >
	<advance width="1000"/>
	<outline>
		<contour>
			<point x="385" y="204" type="line"/>
			<point x="407" y="154" />
			<point x="433" y="86" />
			<point x="444" y="46" type="curve"/>
			<point x="561" y="92" type="line"/>
			<point x="548" y="132" />
			<point x="518" y="197" />
			<point x="495" y="244" type="curve"/>
		</contour>
		<contour>
			<point x="783" y="249" type="line"/>
			<point x="767" y="198" />
			<point x="736" y="130" />
			<point x="711" y="87" type="curve"/>
			<point x="824" y="50" type="line"/>
			<point x="849" y="90" />
			<point x="879" y="149" />
			<point x="907" y="210" type="curve"/>
		</contour>
		<contour>
			<point x="436" y="550" type="line"/>
			<point x="436" y="423" type="line"/>
			<point x="833" y="423" type="line"/>
			<point x="833" y="550" type="line"/>
		</contour>
		<contour>
			<point x="367" y="369" type="line"/>
			<point x="367" y="242" type="line"/>
			<point x="930" y="242" type="line"/>
			<point x="930" y="369" type="line"/>
		</contour>
		<contour>
			<point x="324" y="52" type="line"/>
			<point x="324" y="-78" type="line"/>
			<point x="964" y="-78" type="line"/>
			<point x="964" y="52" type="line"/>
		</contour>
		<contour>
			<point x="564" y="480" type="line"/>
			<point x="564" y="3" type="line"/>
			<point x="705" y="3" type="line"/>
			<point x="705" y="480" type="line"/>
		</contour>
		<contour>
			<point x="712" y="818" type="curve"/>
			<point x="590" y="769" type="line"/>
			<point x="662" y="646" />
			<point x="774" y="518" />
			<point x="879" y="440" type="curve"/>
			<point x="901" y="474" />
			<point x="946" y="524" />
			<point x="978" y="550" type="curve"/>
			<point x="878" y="612" />
			<point x="768" y="720" />
		</contour>
		<contour>
			<point x="591" y="867" type="line"/>
			<point x="539" y="751" />
			<point x="440" y="629" />
			<point x="279" y="542" type="curve"/>
			<point x="307" y="518" />
			<point x="348" y="465" />
			<point x="365" y="431" type="curve"/>
			<point x="548" y="542" />
			<point x="661" y="682" />
			<point x="738" y="839" type="curve"/>
		</contour>
		<contour>
			<point x="144" y="855" type="line"/>
			<point x="144" y="-95" type="line"/>
			<point x="275" y="-95" type="line"/>
			<point x="275" y="855" type="line"/>
		</contour>
		<contour>
			<point x="50" y="684" type="line"/>
			<point x="45" y="599" />
			<point x="31" y="481" />
			<point x="11" y="411" type="curve"/>
			<point x="118" y="374" type="line"/>
			<point x="137" y="456" />
			<point x="151" y="582" />
			<point x="152" y="672" type="curve"/>
		</contour>
		<contour>
			<point x="243" y="687" type="line"/>
			<point x="263" y="651" />
			<point x="289" y="601" />
			<point x="301" y="571" type="curve"/>
			<point x="394" y="626" type="line"/>
			<point x="381" y="654" />
			<point x="353" y="701" />
			<point x="332" y="735" type="curve"/>
		</contour>
	</outline>
</glyph>
<glyph name="cid17921" format="1" >
	<advance width="1000"/>
	<outline>
		<contour>
			<point x="324" y="216" type="line"/>
			<point x="324" y="70" type="line"/>
			<point x="324" y="-43" />
			<point x="351" y="-81" />
			<point x="475" y="-81" type="curve"/>
			<point x="499" y="-81" />
			<point x="559" y="-81" />
			<point x="584" y="-81" type="curve"/>
			<point x="675" y="-81" />
			<point x="711" y="-49" />
			<point x="725" y="76" type="curve"/>
			<point x="689" y="84" />
			<point x="631" y="105" />
			<point x="605" y="125" type="curve"/>
			<point x="601" y="51" />
			<point x="596" y="40" />
			<point x="570" y="40" type="curve"/>
			<point x="554" y="40" />
			<point x="508" y="40" />
			<point x="496" y="40" type="curve"/>
			<point x="465" y="40" />
			<point x="461" y="43" />
			<point x="461" y="72" type="curve"/>
			<point x="461" y="216" type="line"/>
		</contour>
		<contour>
			<point x="391" y="254" type="line"/>
			<point x="444" y="217" />
			<point x="507" y="162" />
			<point x="534" y="123" type="curve"/>
			<point x="634" y="205" type="line"/>
			<point x="603" y="245" />
			<point x="538" y="296" />
			<point x="484" y="329" type="curve"/>
		</contour>
		<contour>
			<point x="650" y="153" type="line"/>
			<point x="708" y="88" />
			<point x="765" y="-1" />
			<point x="784" y="-61" type="curve"/>
			<point x="907" y="-2" type="line"/>
			<point x="884" y="62" />
			<point x="823" y="146" />
			<point x="763" y="207" type="curve"/>
		</contour>
		<contour>
			<point x="207" y="186" type="line"/>
			<point x="187" y="117" />
			<point x="147" y="51" />
			<point x="92" y="10" type="curve"/>
			<point x="203" y="-65" type="line"/>
			<point x="267" y="-14" />
			<point x="302" y="64" />
			<point x="326" y="143" type="curve"/>
		</contour>
		<contour>
			<point x="82" y="796" type="line"/>
			<point x="82" y="685" type="line"/>
			<point x="924" y="685" type="line"/>
			<point x="924" y="796" type="line"/>
		</contour>
		<contour>
			<point x="297" y="657" type="line"/>
			<point x="297" y="567" type="line"/>
			<point x="698" y="567" type="line"/>
			<point x="698" y="657" type="line"/>
		</contour>
		<contour>
			<point x="297" y="542" type="line"/>
			<point x="297" y="452" type="line"/>
			<point x="698" y="452" type="line"/>
			<point x="698" y="542" type="line"/>
		</contour>
		<contour>
			<point x="40" y="427" type="line"/>
			<point x="40" y="309" type="line"/>
			<point x="959" y="309" type="line"/>
			<point x="959" y="427" type="line"/>
		</contour>
		<contour>
			<point x="228" y="855" type="line"/>
			<point x="228" y="355" type="line"/>
			<point x="374" y="355" type="line"/>
			<point x="374" y="855" type="line"/>
		</contour>
		<contour>
			<point x="626" y="855" type="line"/>
			<point x="626" y="355" type="line"/>
			<point x="775" y="355" type="line"/>
			<point x="775" y="855" type="line"/>
		</contour>
		<contour>
			<point x="274" y="393" type="line"/>
			<point x="223" y="310" />
			<point x="122" y="236" />
			<point x="12" y="198" type="curve"/>
			<point x="40" y="173" />
			<point x="81" y="123" />
			<point x="100" y="91" type="curve"/>
			<point x="223" y="142" />
			<point x="327" y="239" />
			<point x="391" y="352" type="curve"/>
		</contour>
		<contour>
			<point x="715" y="393" type="curve"/>
			<point x="603" y="352" type="line"/>
			<point x="669" y="246" />
			<point x="776" y="152" />
			<point x="895" y="104" type="curve"/>
			<point x="915" y="138" />
			<point x="956" y="189" />
			<point x="986" y="215" type="curve"/>
			<point x="874" y="250" />
			<point x="769" y="318" />
		</contour>
	</outline>
</glyph>
<glyph name="cid17925" format="1" >
	<advance width="1000"/>
	<outline>
		<contour>
			<point x="224" y="767" type="line"/>
			<point x="224" y="272" type="line"/>
			<point x="357" y="272" type="line"/>
			<point x="357" y="767" type="line"/>
		</contour>
		<contour>
			<point x="38" y="662" type="line"/>
			<point x="38" y="544" type="line"/>
			<point x="516" y="544" type="line"/>
			<point x="516" y="662" type="line"/>
		</contour>
		<contour>
			<point x="429" y="848" type="line"/>
			<point x="335" y="823" />
			<point x="192" y="806" />
			<point x="64" y="798" type="curve"/>
			<point x="77" y="770" />
			<point x="92" y="725" />
			<point x="96" y="696" type="curve"/>
			<point x="228" y="700" />
			<point x="386" y="715" />
			<point x="505" y="745" type="curve"/>
		</contour>
		<contour>
			<point x="347" y="544" type="curve"/>
			<point x="266" y="482" type="line"/>
			<point x="314" y="443" />
			<point x="398" y="367" />
			<point x="439" y="321" type="curve"/>
			<point x="526" y="420" type="line"/>
			<point x="497" y="442" />
			<point x="385" y="523" />
		</contour>
		<contour>
			<point x="221" y="595" type="line"/>
			<point x="180" y="518" />
			<point x="101" y="437" />
			<point x="23" y="392" type="curve"/>
			<point x="53" y="368" />
			<point x="95" y="320" />
			<point x="116" y="289" type="curve"/>
			<point x="198" y="349" />
			<point x="277" y="455" />
			<point x="323" y="559" type="curve"/>
		</contour>
		<contour>
			<point x="247" y="220" type="line"/>
			<point x="247" y="77" type="line"/>
			<point x="247" y="-41" />
			<point x="286" y="-80" />
			<point x="441" y="-80" type="curve"/>
			<point x="473" y="-80" />
			<point x="578" y="-80" />
			<point x="610" y="-80" type="curve"/>
			<point x="733" y="-80" />
			<point x="773" y="-45" />
			<point x="790" y="95" type="curve"/>
			<point x="751" y="102" />
			<point x="688" y="123" />
			<point x="658" y="144" type="curve"/>
			<point x="652" y="57" />
			<point x="644" y="44" />
			<point x="599" y="44" type="curve"/>
			<point x="568" y="44" />
			<point x="482" y="44" />
			<point x="458" y="44" type="curve"/>
			<point x="403" y="44" />
			<point x="394" y="47" />
			<point x="394" y="78" type="curve"/>
			<point x="394" y="220" type="line"/>
		</contour>
		<contour>
			<point x="408" y="235" type="line"/>
			<point x="455" y="188" />
			<point x="507" y="120" />
			<point x="526" y="76" type="curve"/>
			<point x="646" y="141" type="line"/>
			<point x="623" y="188" />
			<point x="567" y="250" />
			<point x="519" y="294" type="curve"/>
		</contour>
		<contour>
			<point x="728" y="209" type="line"/>
			<point x="772" y="133" />
			<point x="816" y="33" />
			<point x="829" y="-32" type="curve"/>
			<point x="971" y="23" type="line"/>
			<point x="954" y="90" />
			<point x="905" y="185" />
			<point x="859" y="257" type="curve"/>
		</contour>
		<contour>
			<point x="118" y="215" type="line"/>
			<point x="97" y="144" />
			<point x="60" y="62" />
			<point x="26" y="5" type="curve"/>
			<point x="163" y="-55" type="line"/>
			<point x="192" y="4" />
			<point x="224" y="95" />
			<point x="248" y="165" type="curve"/>
		</contour>
		<contour>
			<point x="688" y="658" type="line"/>
			<point x="773" y="658" type="line"/>
			<point x="773" y="429" type="line"/>
			<point x="688" y="429" type="line"/>
		</contour>
		<contour>
			<point x="547" y="782" type="line"/>
			<point x="547" y="306" type="line"/>
			<point x="923" y="306" type="line"/>
			<point x="923" y="782" type="line"/>
		</contour>
	</outline>
</glyph>
<glyph name="cid17926" format="1" >
	<advance width="1000"/>
	<outline>
		<contour>
			<point x="560" y="847" type="line"/>
			<point x="540" y="563" />
			<point x="474" y="355" />
			<point x="292" y="244" type="curve"/>
			<point x="324" y="221" />
			<point x="381" y="167" />
			<point x="400" y="141" type="curve"/>
			<point x="590" y="279" />
			<point x="669" y="512" />
			<point x="700" y="836" type="curve"/>
		</contour>
		<contour>
			<point x="781" y="602" type="curve"/>
			<point x="659" y="575" type="line"/>
			<point x="702" y="399" />
			<point x="774" y="253" />
			<point x="900" y="172" type="curve"/>
			<point x="919" y="205" />
			<point x="959" y="255" />
			<point x="989" y="279" type="curve"/>
			<point x="882" y="341" />
			<point x="814" y="466" />
		</contour>
		<contour>
			<point x="401" y="669" type="line"/>
			<point x="401" y="548" type="line"/>
			<point x="915" y="548" type="line"/>
			<point x="915" y="669" type="line"/>
		</contour>
		<contour>
			<point x="346" y="496" type="line"/>
			<point x="346" y="372" type="line"/>
			<point x="977" y="372" type="line"/>
			<point x="977" y="496" type="line"/>
		</contour>
		<contour>
			<point x="427" y="840" type="line"/>
			<point x="409" y="781" />
			<point x="376" y="717" />
			<point x="337" y="676" type="curve"/>
			<point x="368" y="662" />
			<point x="423" y="634" />
			<point x="449" y="614" type="curve"/>
			<point x="487" y="662" />
			<point x="528" y="738" />
			<point x="551" y="810" type="curve"/>
		</contour>
		<contour>
			<point x="742" y="796" type="line"/>
			<point x="784" y="745" />
			<point x="826" y="674" />
			<point x="841" y="628" type="curve"/>
			<point x="962" y="678" type="line"/>
			<point x="944" y="727" />
			<point x="898" y="794" />
			<point x="855" y="842" type="curve"/>
		</contour>
		<contour>
			<point x="516" y="310" type="line"/>
			<point x="516" y="196" type="line"/>
			<point x="764" y="196" type="line"/>
			<point x="764" y="310" type="line"/>
		</contour>
		<contour>
			<point x="710" y="310" type="line"/>
			<point x="710" y="296" type="line"/>
			<point x="708" y="213" />
			<point x="704" y="181" />
			<point x="697" y="171" type="curve"/>
			<point x="691" y="164" />
			<point x="685" y="163" />
			<point x="676" y="163" type="curve"/>
			<point x="666" y="163" />
			<point x="651" y="163" />
			<point x="630" y="166" type="curve"/>
			<point x="643" y="141" />
			<point x="654" y="101" />
			<point x="655" y="73" type="curve"/>
			<point x="692" y="72" />
			<point x="725" y="72" />
			<point x="745" y="76" type="curve"/>
			<point x="767" y="78" />
			<point x="788" y="86" />
			<point x="804" y="105" type="curve"/>
			<point x="822" y="128" />
			<point x="829" y="176" />
			<point x="832" y="273" type="curve"/>
			<point x="833" y="286" />
			<point x="834" y="310" />
			<point x="834" y="310" type="curve"/>
		</contour>
		<contour>
			<point x="467" y="310" type="line"/>
			<point x="467" y="62" type="line"/>
			<point x="467" y="-62" />
			<point x="505" y="-98" />
			<point x="638" y="-98" type="curve"/>
			<point x="666" y="-98" />
			<point x="762" y="-98" />
			<point x="791" y="-98" type="curve"/>
			<point x="897" y="-98" />
			<point x="935" y="-63" />
			<point x="951" y="70" type="curve"/>
			<point x="914" y="78" />
			<point x="857" y="99" />
			<point x="829" y="119" type="curve"/>
			<point x="824" y="37" />
			<point x="817" y="24" />
			<point x="779" y="24" type="curve"/>
			<point x="754" y="24" />
			<point x="675" y="24" />
			<point x="655" y="24" type="curve"/>
			<point x="609" y="24" />
			<point x="601" y="29" />
			<point x="601" y="65" type="curve"/>
			<point x="601" y="310" type="line"/>
		</contour>
		<contour>
			<point x="145" y="855" type="line"/>
			<point x="145" y="-95" type="line"/>
			<point x="282" y="-95" type="line"/>
			<point x="282" y="855" type="line"/>
		</contour>
		<contour>
			<point x="59" y="654" type="line"/>
			<point x="58" y="563" />
			<point x="44" y="452" />
			<point x="14" y="389" type="curve"/>
			<point x="102" y="350" type="line"/>
			<point x="136" y="426" />
			<point x="150" y="544" />
			<point x="148" y="643" type="curve"/>
		</contour>
		<contour>
			<point x="244" y="653" type="line"/>
			<point x="272" y="586" />
			<point x="296" y="499" />
			<point x="301" y="444" type="curve"/>
			<point x="388" y="478" type="line"/>
			<point x="382" y="532" />
			<point x="355" y="617" />
			<point x="325" y="682" type="curve"/>
		</contour>
	</outline>
</glyph>
<glyph name="cid17932" format="1" >
	<advance width="1000"/>
	<outline>
		<contour>
			<point x="139" y="855" type="line"/>
			<point x="139" y="-95" type="line"/>
			<point x="277" y="-95" type="line"/>
			<point x="277" y="855" type="line"/>
		</contour>
		<contour>
			<point x="54" y="654" type="line"/>
			<point x="49" y="570" />
			<point x="34" y="457" />
			<point x="12" y="389" type="curve"/>
			<point x="116" y="351" type="line"/>
			<point x="138" y="430" />
			<point x="154" y="552" />
			<point x="155" y="641" type="curve"/>
		</contour>
		<contour>
			<point x="245" y="646" type="line"/>
			<point x="265" y="599" />
			<point x="287" y="536" />
			<point x="296" y="497" type="curve"/>
			<point x="391" y="541" type="line"/>
			<point x="381" y="577" />
			<point x="356" y="638" />
			<point x="335" y="683" type="curve"/>
		</contour>
		<contour>
			<point x="433" y="442" type="line"/>
			<point x="433" y="324" type="line"/>
			<point x="816" y="324" type="line"/>
			<point x="816" y="442" type="line"/>
		</contour>
		<contour>
			<point x="783" y="442" type="line"/>
			<point x="783" y="429" type="line"/>
			<point x="759" y="376" />
			<point x="713" y="283" />
			<point x="671" y="210" type="curve"/>
			<point x="791" y="175" type="line"/>
			<point x="832" y="249" />
			<point x="876" y="337" />
			<point x="911" y="419" type="curve"/>
			<point x="820" y="447" type="line"/>
			<point x="800" y="442" type="line"/>
		</contour>
		<contour>
			<point x="479" y="201" type="line"/>
			<point x="479" y="63" type="line"/>
			<point x="479" y="-44" />
			<point x="504" y="-80" />
			<point x="620" y="-80" type="curve"/>
			<point x="643" y="-80" />
			<point x="701" y="-80" />
			<point x="724" y="-80" type="curve"/>
			<point x="809" y="-80" />
			<point x="842" y="-49" />
			<point x="856" y="69" type="curve"/>
			<point x="822" y="77" />
			<point x="768" y="96" />
			<point x="743" y="115" type="curve"/>
			<point x="740" y="44" />
			<point x="734" y="34" />
			<point x="711" y="34" type="curve"/>
			<point x="696" y="34" />
			<point x="652" y="34" />
			<point x="640" y="34" type="curve"/>
			<point x="612" y="34" />
			<point x="607" y="37" />
			<point x="607" y="64" type="curve"/>
			<point x="607" y="201" type="line"/>
		</contour>
		<contour>
			<point x="386" y="203" type="line"/>
			<point x="371" y="137" />
			<point x="343" y="55" />
			<point x="316" y="-1" type="curve"/>
			<point x="429" y="-51" type="line"/>
			<point x="453" y="7" />
			<point x="477" y="95" />
			<point x="494" y="160" type="curve"/>
		</contour>
		<contour>
			<point x="800" y="166" type="line"/>
			<point x="825" y="103" />
			<point x="854" y="19" />
			<point x="865" y="-35" type="curve"/>
			<point x="974" y="5" type="line"/>
			<point x="960" y="58" />
			<point x="931" y="137" />
			<point x="904" y="199" type="curve"/>
		</contour>
		<contour>
			<point x="570" y="549" type="line"/>
			<point x="598" y="510" />
			<point x="633" y="456" />
			<point x="649" y="422" type="curve"/>
			<point x="753" y="483" type="line"/>
			<point x="735" y="515" />
			<point x="700" y="564" />
			<point x="670" y="600" type="curve"/>
		</contour>
		<contour>
			<point x="627" y="864" type="line"/>
			<point x="564" y="726" />
			<point x="444" y="613" />
			<point x="317" y="547" type="curve"/>
			<point x="352" y="518" />
			<point x="391" y="473" />
			<point x="411" y="438" type="curve"/>
			<point x="551" y="527" />
			<point x="672" y="655" />
			<point x="750" y="819" type="curve"/>
		</contour>
		<contour>
			<point x="716" y="820" type="curve"/>
			<point x="602" y="785" type="line"/>
			<point x="678" y="621" />
			<point x="769" y="526" />
			<point x="906" y="447" type="curve"/>
			<point x="922" y="486" />
			<point x="959" y="530" />
			<point x="991" y="559" type="curve"/>
			<point x="870" y="616" />
			<point x="784" y="688" />
		</contour>
		<contour>
			<point x="573" y="247" type="line"/>
			<point x="605" y="194" />
			<point x="646" y="121" />
			<point x="665" y="78" type="curve"/>
			<point x="771" y="127" type="line"/>
			<point x="749" y="169" />
			<point x="705" y="238" />
			<point x="673" y="288" type="curve"/>
		</contour>
	</outline>
</glyph>
<glyph name="cid17938" format="1" >
	<advance width="1000"/>
	<outline>
		<contour>
			<point x="349" y="813" type="line"/>
			<point x="349" y="694" type="line"/>
			<point x="552" y="694" type="line"/>
			<point x="552" y="813" type="line"/>
		</contour>
		<contour>
			<point x="346" y="610" type="line"/>
			<point x="427" y="563" />
			<point x="524" y="490" />
			<point x="567" y="436" type="curve"/>
			<point x="648" y="528" type="line"/>
			<point x="601" y="581" />
			<point x="501" y="649" />
			<point x="421" y="692" type="curve"/>
		</contour>
		<contour>
			<point x="649" y="813" type="line"/>
			<point x="649" y="694" type="line"/>
			<point x="875" y="694" type="line"/>
			<point x="875" y="813" type="line"/>
		</contour>
		<contour>
			<point x="633" y="606" type="line"/>
			<point x="726" y="556" />
			<point x="837" y="476" />
			<point x="887" y="417" type="curve"/>
			<point x="973" y="509" type="line"/>
			<point x="918" y="568" />
			<point x="803" y="642" />
			<point x="712" y="688" type="curve"/>
		</contour>
		<contour>
			<point x="337" y="380" type="line"/>
			<point x="337" y="257" type="line"/>
			<point x="563" y="257" type="line"/>
			<point x="563" y="380" type="line"/>
		</contour>
		<contour>
			<point x="325" y="165" type="line"/>
			<point x="413" y="110" />
			<point x="514" y="25" />
			<point x="556" y="-38" type="curve"/>
			<point x="647" y="56" type="line"/>
			<point x="600" y="120" />
			<point x="495" y="198" />
			<point x="407" y="249" type="curve"/>
		</contour>
		<contour>
			<point x="651" y="380" type="line"/>
			<point x="651" y="257" type="line"/>
			<point x="881" y="257" type="line"/>
			<point x="881" y="380" type="line"/>
		</contour>
		<contour>
			<point x="750" y="252" type="curve"/>
			<point x="635" y="223" type="line"/>
			<point x="688" y="79" />
			<point x="772" y="-37" />
			<point x="903" y="-97" type="curve"/>
			<point x="922" y="-62" />
			<point x="962" y="-10" />
			<point x="992" y="16" type="curve"/>
			<point x="876" y="59" />
			<point x="792" y="148" />
		</contour>
		<contour>
			<point x="529" y="813" type="line"/>
			<point x="529" y="793" type="line"/>
			<point x="502" y="634" />
			<point x="423" y="524" />
			<point x="309" y="466" type="curve"/>
			<point x="337" y="449" />
			<point x="385" y="406" />
			<point x="405" y="382" type="curve"/>
			<point x="524" y="452" />
			<point x="611" y="583" />
			<point x="649" y="790" type="curve"/>
			<point x="573" y="816" type="line"/>
			<point x="553" y="813" type="line"/>
		</contour>
		<contour>
			<point x="523" y="380" type="line"/>
			<point x="523" y="360" type="line"/>
			<point x="497" y="175" />
			<point x="414" y="59" />
			<point x="284" y="0" type="curve"/>
			<point x="311" y="-19" />
			<point x="356" y="-70" />
			<point x="373" y="-97" type="curve"/>
			<point x="514" y="-25" />
			<point x="610" y="120" />
			<point x="648" y="358" type="curve"/>
			<point x="570" y="383" type="line"/>
			<point x="548" y="380" type="line"/>
		</contour>
		<contour>
			<point x="842" y="380" type="line"/>
			<point x="842" y="360" type="line"/>
			<point x="813" y="175" />
			<point x="725" y="59" />
			<point x="591" y="0" type="curve"/>
			<point x="617" y="-19" />
			<point x="661" y="-69" />
			<point x="678" y="-96" type="curve"/>
			<point x="823" y="-24" />
			<point x="925" y="121" />
			<point x="965" y="357" type="curve"/>
			<point x="888" y="383" type="line"/>
			<point x="867" y="380" type="line"/>
		</contour>
		<contour>
			<point x="842" y="813" type="line"/>
			<point x="842" y="793" type="line"/>
			<point x="812" y="634" />
			<point x="726" y="526" />
			<point x="605" y="470" type="curve"/>
			<point x="633" y="453" />
			<point x="681" y="409" />
			<point x="700" y="385" type="curve"/>
			<point x="827" y="453" />
			<point x="922" y="582" />
			<point x="963" y="789" type="curve"/>
			<point x="887" y="816" type="line"/>
			<point x="866" y="813" type="line"/>
		</contour>
		<contour>
			<point x="144" y="855" type="line"/>
			<point x="144" y="-95" type="line"/>
			<point x="281" y="-95" type="line"/>
			<point x="281" y="855" type="line"/>
		</contour>
		<contour>
			<point x="59" y="654" type="line"/>
			<point x="58" y="563" />
			<point x="44" y="452" />
			<point x="14" y="389" type="curve"/>
			<point x="102" y="350" type="line"/>
			<point x="136" y="426" />
			<point x="150" y="544" />
			<point x="148" y="643" type="curve"/>
		</contour>
		<contour>
			<point x="249" y="678" type="line"/>
			<point x="272" y="624" />
			<point x="292" y="553" />
			<point x="295" y="509" type="curve"/>
			<point x="382" y="543" type="line"/>
			<point x="377" y="587" />
			<point x="355" y="655" />
			<point x="330" y="707" type="curve"/>
		</contour>
	</outline>
</glyph>
<glyph name="cid17940" format="1" >
	<advance width="1000"/>
	<outline>
		<contour>
			<point x="462" y="855" type="line"/>
			<point x="435" y="761" />
			<point x="381" y="672" />
			<point x="312" y="617" type="curve"/>
			<point x="342" y="600" />
			<point x="396" y="564" />
			<point x="420" y="543" type="curve"/>
			<point x="489" y="609" />
			<point x="552" y="714" />
			<point x="588" y="827" type="curve"/>
		</contour>
		<contour>
			<point x="541" y="690" type="line"/>
			<point x="505" y="579" />
			<point x="431" y="481" />
			<point x="337" y="423" type="curve"/>
			<point x="366" y="404" />
			<point x="416" y="363" />
			<point x="438" y="341" type="curve"/>
			<point x="533" y="412" />
			<point x="619" y="528" />
			<point x="665" y="662" type="curve"/>
		</contour>
		<contour>
			<point x="697" y="688" type="line"/>
			<point x="664" y="550" />
			<point x="594" y="427" />
			<point x="495" y="354" type="curve"/>
			<point x="525" y="338" />
			<point x="580" y="301" />
			<point x="603" y="280" type="curve"/>
			<point x="700" y="366" />
			<point x="779" y="504" />
			<point x="822" y="663" type="curve"/>
		</contour>
		<contour>
			<point x="505" y="752" type="line"/>
			<point x="436" y="631" type="line"/>
			<point x="884" y="631" type="line"/>
			<point x="884" y="752" type="line"/>
		</contour>
		<contour>
			<point x="834" y="752" type="line"/>
			<point x="834" y="732" type="line"/>
			<point x="821" y="533" />
			<point x="803" y="458" />
			<point x="787" y="438" type="curve"/>
			<point x="777" y="427" />
			<point x="770" y="425" />
			<point x="758" y="425" type="curve"/>
			<point x="746" y="425" />
			<point x="729" y="425" />
			<point x="707" y="428" type="curve"/>
			<point x="727" y="392" />
			<point x="739" y="337" />
			<point x="741" y="296" type="curve"/>
			<point x="778" y="296" />
			<point x="811" y="297" />
			<point x="832" y="302" type="curve"/>
			<point x="858" y="307" />
			<point x="878" y="317" />
			<point x="899" y="344" type="curve"/>
			<point x="930" y="379" />
			<point x="949" y="478" />
			<point x="967" y="699" type="curve"/>
			<point x="969" y="716" />
			<point x="971" y="752" />
			<point x="971" y="752" type="curve"/>
		</contour>
		<contour>
			<point x="500" y="201" type="line"/>
			<point x="500" y="51" type="line"/>
			<point x="500" y="-53" />
			<point x="524" y="-89" />
			<point x="632" y="-89" type="curve"/>
			<point x="653" y="-89" />
			<point x="697" y="-89" />
			<point x="719" y="-89" type="curve"/>
			<point x="799" y="-89" />
			<point x="831" y="-57" />
			<point x="843" y="61" type="curve"/>
			<point x="809" y="69" />
			<point x="756" y="88" />
			<point x="731" y="107" type="curve"/>
			<point x="728" y="34" />
			<point x="723" y="22" />
			<point x="704" y="22" type="curve"/>
			<point x="694" y="22" />
			<point x="664" y="22" />
			<point x="655" y="22" type="curve"/>
			<point x="634" y="22" />
			<point x="631" y="25" />
			<point x="631" y="52" type="curve"/>
			<point x="631" y="201" type="line"/>
		</contour>
		<contour>
			<point x="378" y="199" type="line"/>
			<point x="368" y="120" />
			<point x="344" y="43" />
			<point x="302" y="-6" type="curve"/>
			<point x="413" y="-66" type="line"/>
			<point x="463" y="-10" />
			<point x="483" y="79" />
			<point x="495" y="167" type="curve"/>
		</contour>
		<contour>
			<point x="528" y="232" type="line"/>
			<point x="590" y="208" />
			<point x="667" y="166" />
			<point x="704" y="134" type="curve"/>
			<point x="777" y="231" type="line"/>
			<point x="736" y="263" />
			<point x="657" y="300" />
			<point x="596" y="320" type="curve"/>
		</contour>
		<contour>
			<point x="754" y="161" type="line"/>
			<point x="807" y="93" />
			<point x="858" y="1" />
			<point x="873" y="-61" type="curve"/>
			<point x="987" y="0" type="line"/>
			<point x="969" y="65" />
			<point x="914" y="151" />
			<point x="859" y="216" type="curve"/>
		</contour>
		<contour>
			<point x="145" y="855" type="line"/>
			<point x="145" y="-95" type="line"/>
			<point x="282" y="-95" type="line"/>
			<point x="282" y="855" type="line"/>
		</contour>
		<contour>
			<point x="59" y="660" type="line"/>
			<point x="58" y="569" />
			<point x="44" y="458" />
			<point x="14" y="395" type="curve"/>
			<point x="102" y="356" type="line"/>
			<point x="136" y="432" />
			<point x="150" y="550" />
			<point x="148" y="649" type="curve"/>
		</contour>
		<contour>
			<point x="244" y="669" type="line"/>
			<point x="272" y="602" />
			<point x="296" y="515" />
			<point x="301" y="460" type="curve"/>
			<point x="388" y="494" type="line"/>
			<point x="382" y="548" />
			<point x="355" y="633" />
			<point x="325" y="698" type="curve"/>
		</contour>
	</outline>
</glyph>
<glyph name="cid17944" format="1" >
	<advance width="1000"/>
	<outline>
		<contour>
			<point x="390" y="748" type="line"/>
			<point x="390" y="622" type="line"/>
			<point x="947" y="622" type="line"/>
			<point x="947" y="748" type="line"/>
		</contour>
		<contour>
			<point x="368" y="548" type="line"/>
			<point x="368" y="419" type="line"/>
			<point x="970" y="419" type="line"/>
			<point x="970" y="548" type="line"/>
		</contour>
		<contour>
			<point x="483" y="855" type="line"/>
			<point x="483" y="481" type="line"/>
			<point x="623" y="481" type="line"/>
			<point x="623" y="855" type="line"/>
		</contour>
		<contour>
			<point x="706" y="855" type="line"/>
			<point x="706" y="481" type="line"/>
			<point x="847" y="481" type="line"/>
			<point x="847" y="855" type="line"/>
		</contour>
		<contour>
			<point x="436" y="376" type="line"/>
			<point x="436" y="-94" type="line"/>
			<point x="577" y="-94" type="line"/>
			<point x="577" y="258" type="line"/>
			<point x="772" y="258" type="line"/>
			<point x="772" y="-94" type="line"/>
			<point x="920" y="-94" type="line"/>
			<point x="920" y="376" type="line"/>
		</contour>
		<contour>
			<point x="517" y="212" type="line"/>
			<point x="517" y="99" type="line"/>
			<point x="825" y="99" type="line"/>
			<point x="825" y="212" type="line"/>
		</contour>
		<contour>
			<point x="517" y="53" type="line"/>
			<point x="517" y="-61" type="line"/>
			<point x="811" y="-61" type="line"/>
			<point x="811" y="53" type="line"/>
		</contour>
		<contour>
			<point x="137" y="855" type="line"/>
			<point x="137" y="-90" type="line"/>
			<point x="274" y="-90" type="line"/>
			<point x="274" y="855" type="line"/>
		</contour>
		<contour>
			<point x="56" y="654" type="line"/>
			<point x="49" y="570" />
			<point x="32" y="457" />
			<point x="9" y="389" type="curve"/>
			<point x="101" y="356" type="line"/>
			<point x="123" y="434" />
			<point x="141" y="555" />
			<point x="145" y="642" type="curve"/>
		</contour>
		<contour>
			<point x="236" y="642" type="line"/>
			<point x="263" y="581" />
			<point x="292" y="501" />
			<point x="302" y="451" type="curve"/>
			<point x="386" y="490" type="line"/>
			<point x="375" y="538" />
			<point x="344" y="616" />
			<point x="315" y="675" type="curve"/>
		</contour>
	</outline>
</glyph>
<glyph name="cid17946" format="1" >
	<advance width="1000"/>
	<outline>
		<contour>
			<point x="139" y="855" type="line"/>
			<point x="139" y="-95" type="line"/>
			<point x="275" y="-95" type="line"/>
			<point x="275" y="855" type="line"/>
		</contour>
		<contour>
			<point x="57" y="654" type="line"/>
			<point x="51" y="570" />
			<point x="34" y="457" />
			<point x="12" y="389" type="curve"/>
			<point x="107" y="354" type="line"/>
			<point x="129" y="432" />
			<point x="146" y="553" />
			<point x="149" y="641" type="curve"/>
		</contour>
		<contour>
			<point x="232" y="646" type="line"/>
			<point x="258" y="585" />
			<point x="286" y="505" />
			<point x="296" y="455" type="curve"/>
			<point x="383" y="496" type="line"/>
			<point x="372" y="545" />
			<point x="342" y="622" />
			<point x="314" y="681" type="curve"/>
		</contour>
		<contour>
			<point x="341" y="784" type="line"/>
			<point x="379" y="723" />
			<point x="418" y="638" />
			<point x="432" y="583" type="curve"/>
			<point x="557" y="643" type="line"/>
			<point x="540" y="697" />
			<point x="500" y="777" />
			<point x="459" y="836" type="curve"/>
		</contour>
		<contour>
			<point x="824" y="830" type="line"/>
			<point x="802" y="765" />
			<point x="761" y="678" />
			<point x="725" y="621" type="curve"/>
			<point x="834" y="580" type="line"/>
			<point x="872" y="631" />
			<point x="921" y="710" />
			<point x="965" y="785" type="curve"/>
		</contour>
		<contour>
			<point x="578" y="855" type="line"/>
			<point x="578" y="472" type="line"/>
			<point x="720" y="472" type="line"/>
			<point x="720" y="855" type="line"/>
		</contour>
		<contour>
			<point x="816" y="568" type="line"/>
			<point x="816" y="50" type="line"/>
			<point x="816" y="37" />
			<point x="811" y="33" />
			<point x="797" y="33" type="curve"/>
			<point x="783" y="33" />
			<point x="732" y="32" />
			<point x="693" y="35" type="curve"/>
			<point x="709" y="1" />
			<point x="726" y="-53" />
			<point x="731" y="-89" type="curve"/>
			<point x="804" y="-89" />
			<point x="857" y="-87" />
			<point x="896" y="-67" type="curve"/>
			<point x="935" y="-47" />
			<point x="946" y="-13" />
			<point x="946" y="48" type="curve"/>
			<point x="946" y="568" type="line"/>
		</contour>
		<contour>
			<point x="362" y="568" type="line"/>
			<point x="362" y="-95" type="line"/>
			<point x="491" y="-95" type="line"/>
			<point x="491" y="439" type="line"/>
			<point x="900" y="439" type="line"/>
			<point x="900" y="568" type="line"/>
		</contour>
		<contour>
			<point x="523" y="395" type="line"/>
			<point x="523" y="53" type="line"/>
			<point x="631" y="53" type="line"/>
			<point x="631" y="395" type="line"/>
		</contour>
		<contour>
			<point x="569" y="395" type="line"/>
			<point x="569" y="287" type="line"/>
			<point x="675" y="287" type="line"/>
			<point x="675" y="208" type="line"/>
			<point x="569" y="208" type="line"/>
			<point x="569" y="100" type="line"/>
			<point x="783" y="100" type="line"/>
			<point x="783" y="395" type="line"/>
		</contour>
	</outline>
</glyph>
<glyph name="cid17955" format="1" >
	<advance width="1000"/>
	<outline>
		<contour>
			<point x="519" y="751" type="line"/>
			<point x="519" y="630" type="line"/>
			<point x="862" y="630" type="line"/>
			<point x="862" y="751" type="line"/>
		</contour>
		<contour>
			<point x="107" y="740" type="line"/>
			<point x="107" y="622" type="line"/>
			<point x="405" y="622" type="line"/>
			<point x="405" y="740" type="line"/>
		</contour>
		<contour>
			<point x="495" y="857" type="line"/>
			<point x="470" y="757" />
			<point x="422" y="659" />
			<point x="360" y="598" type="curve"/>
			<point x="389" y="581" />
			<point x="440" y="544" />
			<point x="462" y="523" type="curve"/>
			<point x="527" y="595" />
			<point x="584" y="711" />
			<point x="617" y="830" type="curve"/>
		</contour>
		<contour>
			<point x="581" y="690" type="line"/>
			<point x="547" y="581" />
			<point x="482" y="478" />
			<point x="403" y="414" type="curve"/>
			<point x="428" y="398" />
			<point x="471" y="361" />
			<point x="490" y="341" type="curve"/>
			<point x="572" y="416" />
			<point x="646" y="536" />
			<point x="689" y="664" type="curve"/>
		</contour>
		<contour>
			<point x="709" y="690" type="line"/>
			<point x="676" y="538" />
			<point x="610" y="401" />
			<point x="513" y="319" type="curve"/>
			<point x="539" y="301" />
			<point x="585" y="260" />
			<point x="603" y="239" type="curve"/>
			<point x="705" y="337" />
			<point x="782" y="492" />
			<point x="824" y="668" type="curve"/>
		</contour>
		<contour>
			<point x="65" y="825" type="line"/>
			<point x="59" y="740" />
			<point x="45" y="649" />
			<point x="19" y="590" type="curve"/>
			<point x="45" y="576" />
			<point x="92" y="545" />
			<point x="112" y="527" type="curve"/>
			<point x="143" y="596" />
			<point x="166" y="703" />
			<point x="176" y="804" type="curve"/>
		</contour>
		<contour>
			<point x="288" y="208" type="line"/>
			<point x="288" y="82" type="line"/>
			<point x="288" y="-37" />
			<point x="320" y="-77" />
			<point x="461" y="-77" type="curve"/>
			<point x="489" y="-77" />
			<point x="568" y="-77" />
			<point x="597" y="-77" type="curve"/>
			<point x="703" y="-77" />
			<point x="741" y="-43" />
			<point x="757" y="92" type="curve"/>
			<point x="719" y="100" />
			<point x="658" y="121" />
			<point x="629" y="143" type="curve"/>
			<point x="624" y="63" />
			<point x="618" y="51" />
			<point x="584" y="51" type="curve"/>
			<point x="561" y="51" />
			<point x="498" y="51" />
			<point x="480" y="51" type="curve"/>
			<point x="439" y="51" />
			<point x="432" y="54" />
			<point x="432" y="84" type="curve"/>
			<point x="432" y="208" type="line"/>
		</contour>
		<contour>
			<point x="374" y="233" type="line"/>
			<point x="426" y="195" />
			<point x="488" y="139" />
			<point x="514" y="100" type="curve"/>
			<point x="616" y="181" type="line"/>
			<point x="586" y="221" />
			<point x="522" y="273" />
			<point x="470" y="307" type="curve"/>
		</contour>
		<contour>
			<point x="687" y="160" type="line"/>
			<point x="753" y="97" />
			<point x="822" y="8" />
			<point x="847" y="-54" type="curve"/>
			<point x="976" y="19" type="line"/>
			<point x="946" y="84" />
			<point x="873" y="167" />
			<point x="806" y="226" type="curve"/>
		</contour>
		<contour>
			<point x="151" y="213" type="line"/>
			<point x="130" y="135" />
			<point x="87" y="64" />
			<point x="28" y="18" type="curve"/>
			<point x="149" y="-65" type="line"/>
			<point x="218" y="-8" />
			<point x="256" y="79" />
			<point x="281" y="168" type="curve"/>
		</contour>
		<contour>
			<point x="186" y="855" type="line"/>
			<point x="186" y="238" type="line"/>
			<point x="318" y="238" type="line"/>
			<point x="318" y="855" type="line"/>
		</contour>
		<contour>
			<point x="37" y="502" type="curve"/>
			<point x="56" y="376" type="line"/>
			<point x="158" y="394" />
			<point x="289" y="418" />
			<point x="413" y="442" type="curve"/>
			<point x="404" y="558" type="line"/>
			<point x="271" y="536" />
			<point x="131" y="514" />
		</contour>
		<contour>
			<point x="821" y="751" type="line"/>
			<point x="821" y="729" type="line"/>
			<point x="812" y="485" />
			<point x="800" y="396" />
			<point x="784" y="374" type="curve"/>
			<point x="775" y="363" />
			<point x="767" y="360" />
			<point x="754" y="360" type="curve"/>
			<point x="739" y="360" />
			<point x="716" y="360" />
			<point x="688" y="363" type="curve"/>
			<point x="707" y="330" />
			<point x="720" y="279" />
			<point x="722" y="242" type="curve"/>
			<point x="763" y="241" />
			<point x="801" y="242" />
			<point x="825" y="247" type="curve"/>
			<point x="854" y="253" />
			<point x="877" y="263" />
			<point x="898" y="291" type="curve"/>
			<point x="926" y="328" />
			<point x="939" y="434" />
			<point x="951" y="700" type="curve"/>
			<point x="952" y="715" />
			<point x="953" y="751" />
			<point x="953" y="751" type="curve"/>
		</contour>
	</outline>
</glyph>
<glyph name="cid17973" format="1" >
	<advance width="1000"/>
	<outline>
		<contour>
			<point x="600" y="691" type="line"/>
			<point x="600" y="-97" type="line"/>
			<point x="728" y="-97" type="line"/>
			<point x="728" y="691" type="line"/>
		</contour>
		<contour>
			<point x="370" y="815" type="line"/>
			<point x="370" y="639" type="line"/>
			<point x="495" y="639" type="line"/>
			<point x="495" y="711" type="line"/>
			<point x="828" y="711" type="line"/>
			<point x="828" y="639" type="line"/>
			<point x="959" y="639" type="line"/>
			<point x="959" y="815" type="line"/>
		</contour>
		<contour>
			<point x="405" y="625" type="line"/>
			<point x="405" y="520" type="line"/>
			<point x="932" y="520" type="line"/>
			<point x="932" y="625" type="line"/>
		</contour>
		<contour>
			<point x="356" y="134" type="line"/>
			<point x="356" y="23" type="line"/>
			<point x="973" y="23" type="line"/>
			<point x="973" y="134" type="line"/>
		</contour>
		<contour>
			<point x="531" y="285" type="line"/>
			<point x="798" y="285" type="line"/>
			<point x="798" y="255" type="line"/>
			<point x="531" y="255" type="line"/>
		</contour>
		<contour>
			<point x="531" y="397" type="line"/>
			<point x="798" y="397" type="line"/>
			<point x="798" y="367" type="line"/>
			<point x="531" y="367" type="line"/>
		</contour>
		<contour>
			<point x="406" y="487" type="line"/>
			<point x="406" y="165" type="line"/>
			<point x="929" y="165" type="line"/>
			<point x="929" y="487" type="line"/>
		</contour>
		<contour>
			<point x="145" y="855" type="line"/>
			<point x="145" y="-95" type="line"/>
			<point x="282" y="-95" type="line"/>
			<point x="282" y="855" type="line"/>
		</contour>
		<contour>
			<point x="59" y="654" type="line"/>
			<point x="58" y="563" />
			<point x="44" y="452" />
			<point x="14" y="389" type="curve"/>
			<point x="102" y="350" type="line"/>
			<point x="136" y="426" />
			<point x="150" y="544" />
			<point x="148" y="643" type="curve"/>
		</contour>
		<contour>
			<point x="244" y="653" type="line"/>
			<point x="272" y="586" />
			<point x="296" y="499" />
			<point x="301" y="444" type="curve"/>
			<point x="388" y="478" type="line"/>
			<point x="382" y="532" />
			<point x="355" y="617" />
			<point x="325" y="682" type="curve"/>
		</contour>
	</outline>
</glyph>
<glyph name="cid17983" format="1" >
	<advance width="1000"/>
	<outline>
		<contour>
			<point x="59" y="627" type="line"/>
			<point x="59" y="515" type="line"/>
			<point x="937" y="515" type="line"/>
			<point x="937" y="627" type="line"/>
		</contour>
		<contour>
			<point x="63" y="803" type="line"/>
			<point x="63" y="690" type="line"/>
			<point x="937" y="690" type="line"/>
			<point x="937" y="803" type="line"/>
		</contour>
		<contour>
			<point x="254" y="855" type="line"/>
			<point x="254" y="643" type="line"/>
			<point x="396" y="643" type="line"/>
			<point x="396" y="855" type="line"/>
		</contour>
		<contour>
			<point x="599" y="855" type="line"/>
			<point x="599" y="643" type="line"/>
			<point x="743" y="643" type="line"/>
			<point x="743" y="855" type="line"/>
		</contour>
		<contour>
			<point x="365" y="370" type="line"/>
			<point x="708" y="370" type="line"/>
			<point x="708" y="324" type="line"/>
			<point x="365" y="324" type="line"/>
		</contour>
		<contour>
			<point x="230" y="475" type="line"/>
			<point x="230" y="220" type="line"/>
			<point x="852" y="220" type="line"/>
			<point x="852" y="475" type="line"/>
		</contour>
		<contour>
			<point x="344" y="687" type="line"/>
			<point x="291" y="543" />
			<point x="174" y="437" />
			<point x="21" y="379" type="curve"/>
			<point x="50" y="352" />
			<point x="98" y="294" />
			<point x="118" y="264" type="curve"/>
			<point x="281" y="341" />
			<point x="414" y="472" />
			<point x="486" y="652" type="curve"/>
		</contour>
		<contour>
			<point x="268" y="189" type="line"/>
			<point x="268" y="78" type="line"/>
			<point x="268" y="-40" />
			<point x="301" y="-80" />
			<point x="449" y="-80" type="curve"/>
			<point x="479" y="-80" />
			<point x="568" y="-80" />
			<point x="599" y="-80" type="curve"/>
			<point x="706" y="-80" />
			<point x="745" y="-49" />
			<point x="762" y="74" type="curve"/>
			<point x="723" y="82" />
			<point x="662" y="103" />
			<point x="634" y="124" type="curve"/>
			<point x="628" y="58" />
			<point x="622" y="48" />
			<point x="585" y="48" type="curve"/>
			<point x="559" y="48" />
			<point x="487" y="48" />
			<point x="467" y="48" type="curve"/>
			<point x="420" y="48" />
			<point x="412" y="51" />
			<point x="412" y="80" type="curve"/>
			<point x="412" y="189" type="line"/>
		</contour>
		<contour>
			<point x="398" y="200" type="line"/>
			<point x="452" y="165" />
			<point x="516" y="110" />
			<point x="544" y="72" type="curve"/>
			<point x="644" y="157" type="line"/>
			<point x="612" y="196" />
			<point x="546" y="246" />
			<point x="491" y="277" type="curve"/>
		</contour>
		<contour>
			<point x="715" y="139" type="line"/>
			<point x="766" y="80" />
			<point x="824" y="-2" />
			<point x="846" y="-56" type="curve"/>
			<point x="980" y="8" type="line"/>
			<point x="954" y="64" />
			<point x="892" y="141" />
			<point x="840" y="197" type="curve"/>
		</contour>
		<contour>
			<point x="136" y="201" type="line"/>
			<point x="111" y="131" />
			<point x="66" y="58" />
			<point x="18" y="10" type="curve"/>
			<point x="145" y="-66" type="line"/>
			<point x="196" y="-10" />
			<point x="236" y="73" />
			<point x="265" y="147" type="curve"/>
		</contour>
	</outline>
</glyph>
<glyph name="cid17986" format="1" >
	<advance width="1000"/>
	<outline>
		<contour>
			<point x="655" y="738" type="line"/>
			<point x="655" y="184" type="line"/>
			<point x="786" y="184" type="line"/>
			<point x="786" y="738" type="line"/>
		</contour>
		<contour>
			<point x="819" y="855" type="line"/>
			<point x="819" y="67" type="line"/>
			<point x="819" y="52" />
			<point x="814" y="47" />
			<point x="799" y="47" type="curve"/>
			<point x="783" y="47" />
			<point x="739" y="47" />
			<point x="694" y="49" type="curve"/>
			<point x="713" y="8" />
			<point x="731" y="-56" />
			<point x="735" y="-96" type="curve"/>
			<point x="810" y="-96" />
			<point x="866" y="-90" />
			<point x="904" y="-66" type="curve"/>
			<point x="942" y="-43" />
			<point x="953" y="-4" />
			<point x="953" y="66" type="curve"/>
			<point x="953" y="855" type="line"/>
		</contour>
		<contour>
			<point x="459" y="522" type="line"/>
			<point x="493" y="522" type="line"/>
			<point x="493" y="456" type="line"/>
			<point x="459" y="456" type="line"/>
		</contour>
		<contour>
			<point x="459" y="347" type="line"/>
			<point x="493" y="347" type="line"/>
			<point x="493" y="281" type="line"/>
			<point x="459" y="281" type="line"/>
		</contour>
		<contour>
			<point x="459" y="696" type="line"/>
			<point x="493" y="696" type="line"/>
			<point x="493" y="631" type="line"/>
			<point x="459" y="631" type="line"/>
		</contour>
		<contour>
			<point x="337" y="824" type="line"/>
			<point x="337" y="153" type="line"/>
			<point x="620" y="153" type="line"/>
			<point x="620" y="824" type="line"/>
		</contour>
		<contour>
			<point x="473" y="116" type="line"/>
			<point x="506" y="58" />
			<point x="541" y="-19" />
			<point x="552" y="-68" type="curve"/>
			<point x="669" y="-15" type="line"/>
			<point x="655" y="35" />
			<point x="617" y="108" />
			<point x="582" y="163" type="curve"/>
		</contour>
		<contour>
			<point x="367" y="154" type="line"/>
			<point x="350" y="87" />
			<point x="317" y="18" />
			<point x="274" y="-27" type="curve"/>
			<point x="304" y="-42" />
			<point x="358" y="-76" />
			<point x="382" y="-97" type="curve"/>
			<point x="427" y="-44" />
			<point x="469" y="42" />
			<point x="493" y="125" type="curve"/>
		</contour>
		<contour>
			<point x="133" y="855" type="line"/>
			<point x="133" y="-95" type="line"/>
			<point x="264" y="-95" type="line"/>
			<point x="264" y="855" type="line"/>
		</contour>
		<contour>
			<point x="55" y="654" type="line"/>
			<point x="55" y="564" />
			<point x="43" y="453" />
			<point x="15" y="389" type="curve"/>
			<point x="99" y="353" type="line"/>
			<point x="131" y="429" />
			<point x="143" y="547" />
			<point x="140" y="643" type="curve"/>
		</contour>
		<contour>
			<point x="238" y="657" type="line"/>
			<point x="261" y="589" />
			<point x="279" y="500" />
			<point x="280" y="446" type="curve"/>
			<point x="363" y="473" type="line"/>
			<point x="361" y="527" />
			<point x="341" y="612" />
			<point x="315" y="680" type="curve"/>
		</contour>
	</outline>
</glyph>
<glyph name="cid17988" format="1" >
	<advance width="1000"/>
	<outline>
		<contour>
			<point x="388" y="757" type="line"/>
			<point x="388" y="503" type="line"/>
			<point x="388" y="354" />
			<point x="379" y="141" />
			<point x="275" y="-2" type="curve"/>
			<point x="305" y="-16" />
			<point x="361" y="-57" />
			<point x="384" y="-81" type="curve"/>
			<point x="499" y="77" />
			<point x="518" y="334" />
			<point x="518" y="503" type="curve"/>
			<point x="518" y="757" type="line"/>
		</contour>
		<contour>
			<point x="581" y="824" type="line"/>
			<point x="598" y="784" />
			<point x="620" y="729" />
			<point x="628" y="695" type="curve"/>
			<point x="761" y="739" type="line"/>
			<point x="751" y="772" />
			<point x="729" y="823" />
			<point x="709" y="861" type="curve"/>
		</contour>
		<contour>
			<point x="142" y="855" type="line"/>
			<point x="142" y="-95" type="line"/>
			<point x="274" y="-95" type="line"/>
			<point x="274" y="855" type="line"/>
		</contour>
		<contour>
			<point x="50" y="654" type="line"/>
			<point x="47" y="568" />
			<point x="33" y="455" />
			<point x="9" y="389" type="curve"/>
			<point x="112" y="350" type="line"/>
			<point x="137" y="429" />
			<point x="151" y="549" />
			<point x="151" y="641" type="curve"/>
		</contour>
		<contour>
			<point x="242" y="655" type="line"/>
			<point x="264" y="584" />
			<point x="289" y="490" />
			<point x="298" y="434" type="curve"/>
			<point x="400" y="474" type="line"/>
			<point x="389" y="527" />
			<point x="361" y="618" />
			<point x="337" y="687" type="curve"/>
		</contour>
		<contour>
			<point x="462" y="757" type="line"/>
			<point x="462" y="646" type="line"/>
			<point x="805" y="646" type="line"/>
			<point x="805" y="568" type="line"/>
			<point x="462" y="568" type="line"/>
			<point x="462" y="457" type="line"/>
			<point x="928" y="457" type="line"/>
			<point x="928" y="757" type="line"/>
		</contour>
		<contour>
			<point x="491" y="397" type="line"/>
			<point x="491" y="-90" type="line"/>
			<point x="602" y="-90" type="line"/>
			<point x="602" y="300" type="line"/>
			<point x="887" y="300" type="line"/>
			<point x="887" y="397" type="line"/>
		</contour>
		<contour>
			<point x="855" y="397" type="line"/>
			<point x="855" y="27" type="line"/>
			<point x="855" y="20" />
			<point x="853" y="18" />
			<point x="847" y="18" type="curve"/>
			<point x="841" y="18" />
			<point x="828" y="18" />
			<point x="815" y="18" type="curve"/>
			<point x="829" y="-10" />
			<point x="845" y="-56" />
			<point x="849" y="-87" type="curve"/>
			<point x="883" y="-87" />
			<point x="909" y="-84" />
			<point x="933" y="-66" type="curve"/>
			<point x="958" y="-48" />
			<point x="963" y="-17" />
			<point x="963" y="25" type="curve"/>
			<point x="963" y="397" type="line"/>
		</contour>
		<contour>
			<point x="536" y="204" type="line"/>
			<point x="536" y="96" type="line"/>
			<point x="892" y="96" type="line"/>
			<point x="892" y="204" type="line"/>
		</contour>
		<contour>
			<point x="628" y="357" type="line"/>
			<point x="628" y="-66" type="line"/>
			<point x="717" y="-66" type="line"/>
			<point x="717" y="357" type="line"/>
		</contour>
		<contour>
			<point x="741" y="357" type="line"/>
			<point x="741" y="-62" type="line"/>
			<point x="829" y="-62" type="line"/>
			<point x="829" y="357" type="line"/>
		</contour>
	</outline>
</glyph>
<glyph name="cid17990" format="1" >
	<advance width="1000"/>
	<outline>
		<contour>
			<point x="497" y="163" type="line"/>
			<point x="497" y="71" type="line"/>
			<point x="849" y="71" type="line"/>
			<point x="849" y="163" type="line"/>
		</contour>
		<contour>
			<point x="497" y="40" type="line"/>
			<point x="497" y="-63" type="line"/>
			<point x="844" y="-63" type="line"/>
			<point x="844" y="40" type="line"/>
		</contour>
		<contour>
			<point x="423" y="296" type="line"/>
			<point x="423" y="-97" type="line"/>
			<point x="559" y="-97" type="line"/>
			<point x="559" y="193" type="line"/>
			<point x="782" y="193" type="line"/>
			<point x="782" y="-97" type="line"/>
			<point x="925" y="-97" type="line"/>
			<point x="925" y="296" type="line"/>
		</contour>
		<contour>
			<point x="406" y="822" type="line"/>
			<point x="406" y="364" type="line"/>
			<point x="537" y="391" type="line"/>
			<point x="537" y="822" type="line"/>
		</contour>
		<contour>
			<point x="470" y="822" type="line"/>
			<point x="470" y="729" type="line"/>
			<point x="789" y="729" type="line"/>
			<point x="789" y="693" type="line"/>
			<point x="470" y="693" type="line"/>
			<point x="470" y="600" type="line"/>
			<point x="923" y="600" type="line"/>
			<point x="923" y="822" type="line"/>
		</contour>
		<contour>
			<point x="473" y="568" type="line"/>
			<point x="473" y="470" type="line"/>
			<point x="964" y="470" type="line"/>
			<point x="964" y="568" type="line"/>
		</contour>
		<contour>
			<point x="338" y="413" type="curve"/>
			<point x="357" y="296" type="line"/>
			<point x="451" y="306" />
			<point x="571" y="319" />
			<point x="686" y="333" type="curve"/>
			<point x="683" y="440" type="line"/>
			<point x="557" y="429" />
			<point x="427" y="419" />
		</contour>
		<contour>
			<point x="643" y="616" type="line"/>
			<point x="664" y="468" />
			<point x="703" y="328" />
			<point x="838" y="292" type="curve"/>
			<point x="915" y="268" />
			<point x="972" y="307" />
			<point x="986" y="407" type="curve"/>
			<point x="964" y="419" />
			<point x="916" y="454" />
			<point x="893" y="474" type="curve"/>
			<point x="889" y="438" />
			<point x="883" y="412" />
			<point x="873" y="414" type="curve"/>
			<point x="822" y="422" />
			<point x="780" y="504" />
			<point x="768" y="616" type="curve"/>
		</contour>
		<contour>
			<point x="151" y="855" type="line"/>
			<point x="151" y="-95" type="line"/>
			<point x="291" y="-95" type="line"/>
			<point x="291" y="855" type="line"/>
		</contour>
		<contour>
			<point x="59" y="654" type="line"/>
			<point x="58" y="563" />
			<point x="44" y="452" />
			<point x="14" y="389" type="curve"/>
			<point x="107" y="348" type="line"/>
			<point x="141" y="425" />
			<point x="155" y="543" />
			<point x="153" y="642" type="curve"/>
		</contour>
		<contour>
			<point x="255" y="661" type="line"/>
			<point x="287" y="596" />
			<point x="317" y="511" />
			<point x="325" y="458" type="curve"/>
			<point x="414" y="499" type="line"/>
			<point x="405" y="552" />
			<point x="372" y="634" />
			<point x="338" y="697" type="curve"/>
		</contour>
	</outline>
</glyph>
<glyph name="cid17995" format="1" >
	<advance width="1000"/>
	<outline>
		<contour>
			<point x="145" y="855" type="line"/>
			<point x="145" y="-95" type="line"/>
			<point x="282" y="-95" type="line"/>
			<point x="282" y="855" type="line"/>
		</contour>
		<contour>
			<point x="59" y="654" type="line"/>
			<point x="58" y="563" />
			<point x="44" y="452" />
			<point x="14" y="389" type="curve"/>
			<point x="102" y="350" type="line"/>
			<point x="136" y="426" />
			<point x="150" y="544" />
			<point x="148" y="643" type="curve"/>
		</contour>
		<contour>
			<point x="244" y="653" type="line"/>
			<point x="272" y="586" />
			<point x="296" y="499" />
			<point x="301" y="444" type="curve"/>
			<point x="388" y="478" type="line"/>
			<point x="382" y="532" />
			<point x="355" y="617" />
			<point x="325" y="682" type="curve"/>
		</contour>
		<contour>
			<point x="635" y="248" type="line"/>
			<point x="635" y="135" type="line"/>
			<point x="919" y="135" type="line"/>
			<point x="919" y="248" type="line"/>
		</contour>
		<contour>
			<point x="325" y="432" type="line"/>
			<point x="325" y="316" type="line"/>
			<point x="947" y="316" type="line"/>
			<point x="947" y="432" type="line"/>
		</contour>
		<contour>
			<point x="518" y="600" type="line"/>
			<point x="752" y="600" type="line"/>
			<point x="752" y="572" type="line"/>
			<point x="518" y="572" type="line"/>
		</contour>
		<contour>
			<point x="518" y="720" type="line"/>
			<point x="752" y="720" type="line"/>
			<point x="752" y="693" type="line"/>
			<point x="518" y="693" type="line"/>
		</contour>
		<contour>
			<point x="387" y="820" type="line"/>
			<point x="387" y="472" type="line"/>
			<point x="890" y="472" type="line"/>
			<point x="890" y="820" type="line"/>
		</contour>
		<contour>
			<point x="499" y="188" type="curve"/>
			<point x="413" y="160" type="line"/>
			<point x="479" y="-39" />
			<point x="598" y="-75" />
			<point x="762" y="-75" type="curve"/>
			<point x="897" y="-75" type="line"/>
			<point x="939" y="-75" type="line"/>
			<point x="944" y="-41" />
			<point x="961" y="16" />
			<point x="977" y="43" type="curve"/>
			<point x="929" y="42" />
			<point x="806" y="42" />
			<point x="769" y="42" type="curve"/>
			<point x="650" y="42" />
			<point x="549" y="58" />
		</contour>
		<contour>
			<point x="575" y="388" type="line"/>
			<point x="575" y="9" type="line"/>
			<point x="704" y="-29" type="line"/>
			<point x="704" y="388" type="line"/>
		</contour>
		<contour>
			<point x="401" y="288" type="line"/>
			<point x="386" y="164" />
			<point x="348" y="53" />
			<point x="275" y="-13" type="curve"/>
			<point x="307" y="-33" />
			<point x="364" y="-79" />
			<point x="388" y="-103" type="curve"/>
			<point x="469" y="-20" />
			<point x="519" y="115" />
			<point x="542" y="269" type="curve"/>
		</contour>
	</outline>
</glyph>
<glyph name="cid17999" format="1" >
	<advance width="1000"/>
	<outline>
		<contour>
			<point x="199" y="765" type="line"/>
			<point x="199" y="229" type="line"/>
			<point x="332" y="229" type="line"/>
			<point x="332" y="765" type="line"/>
		</contour>
		<contour>
			<point x="498" y="725" type="line"/>
			<point x="487" y="665" />
			<point x="465" y="593" />
			<point x="440" y="545" type="curve"/>
			<point x="555" y="494" type="line"/>
			<point x="579" y="544" />
			<point x="597" y="621" />
			<point x="609" y="683" type="curve"/>
		</contour>
		<contour>
			<point x="828" y="737" type="line"/>
			<point x="818" y="677" />
			<point x="796" y="598" />
			<point x="776" y="545" type="curve"/>
			<point x="888" y="505" type="line"/>
			<point x="910" y="552" />
			<point x="938" y="623" />
			<point x="967" y="692" type="curve"/>
		</contour>
		<contour>
			<point x="42" y="655" type="line"/>
			<point x="42" y="531" type="line"/>
			<point x="443" y="531" type="line"/>
			<point x="443" y="655" type="line"/>
		</contour>
		<contour>
			<point x="379" y="854" type="line"/>
			<point x="294" y="824" />
			<point x="158" y="800" />
			<point x="34" y="787" type="curve"/>
			<point x="48" y="761" />
			<point x="64" y="716" />
			<point x="69" y="688" type="curve"/>
			<point x="200" y="698" />
			<point x="355" y="720" />
			<point x="471" y="758" type="curve"/>
		</contour>
		<contour>
			<point x="331" y="541" type="curve"/>
			<point x="248" y="484" type="line"/>
			<point x="286" y="449" />
			<point x="351" y="380" />
			<point x="383" y="339" type="curve"/>
			<point x="472" y="434" type="line"/>
			<point x="450" y="453" />
			<point x="360" y="523" />
		</contour>
		<contour>
			<point x="200" y="595" type="line"/>
			<point x="163" y="509" />
			<point x="92" y="418" />
			<point x="19" y="367" type="curve"/>
			<point x="49" y="344" />
			<point x="91" y="296" />
			<point x="113" y="265" type="curve"/>
			<point x="191" y="332" />
			<point x="261" y="448" />
			<point x="303" y="561" type="curve"/>
		</contour>
		<contour>
			<point x="247" y="194" type="line"/>
			<point x="247" y="80" type="line"/>
			<point x="247" y="-39" />
			<point x="286" y="-78" />
			<point x="443" y="-78" type="curve"/>
			<point x="475" y="-78" />
			<point x="582" y="-78" />
			<point x="615" y="-78" type="curve"/>
			<point x="734" y="-78" />
			<point x="774" y="-45" />
			<point x="791" y="86" type="curve"/>
			<point x="752" y="93" />
			<point x="690" y="114" />
			<point x="660" y="135" type="curve"/>
			<point x="654" y="60" />
			<point x="647" y="49" />
			<point x="603" y="49" type="curve"/>
			<point x="572" y="49" />
			<point x="483" y="49" />
			<point x="459" y="49" type="curve"/>
			<point x="404" y="49" />
			<point x="394" y="52" />
			<point x="394" y="82" type="curve"/>
			<point x="394" y="194" type="line"/>
		</contour>
		<contour>
			<point x="408" y="231" type="line"/>
			<point x="455" y="181" />
			<point x="507" y="110" />
			<point x="526" y="63" type="curve"/>
			<point x="646" y="132" type="line"/>
			<point x="623" y="181" />
			<point x="567" y="247" />
			<point x="519" y="293" type="curve"/>
		</contour>
		<contour>
			<point x="739" y="173" type="line"/>
			<point x="779" y="100" />
			<point x="818" y="5" />
			<point x="829" y="-56" type="curve"/>
			<point x="963" y="-3" type="line"/>
			<point x="949" y="60" />
			<point x="905" y="151" />
			<point x="863" y="220" type="curve"/>
		</contour>
		<contour>
			<point x="112" y="197" type="line"/>
			<point x="93" y="127" />
			<point x="58" y="52" />
			<point x="19" y="2" type="curve"/>
			<point x="147" y="-68" type="line"/>
			<point x="187" y="-11" />
			<point x="218" y="74" />
			<point x="239" y="147" type="curve"/>
		</contour>
		<contour>
			<point x="623" y="850" type="line"/>
			<point x="623" y="666" type="line"/>
			<point x="623" y="559" />
			<point x="601" y="428" />
			<point x="434" y="347" type="curve"/>
			<point x="458" y="322" />
			<point x="495" y="266" />
			<point x="509" y="234" type="curve"/>
			<point x="724" y="338" />
			<point x="756" y="513" />
			<point x="756" y="663" type="curve"/>
			<point x="756" y="850" type="line"/>
		</contour>
		<contour>
			<point x="748" y="656" type="curve"/>
			<point x="644" y="644" type="line"/>
			<point x="678" y="450" />
			<point x="735" y="309" />
			<point x="885" y="240" type="curve"/>
			<point x="902" y="278" />
			<point x="942" y="334" />
			<point x="971" y="362" type="curve"/>
			<point x="837" y="406" />
			<point x="776" y="515" />
		</contour>
	</outline>
</glyph>
<glyph name="cid18003" format="1" >
	<advance width="1000"/>
	<outline>
		<contour>
			<point x="366" y="762" type="line"/>
			<point x="366" y="560" type="line"/>
			<point x="498" y="560" type="line"/>
			<point x="498" y="641" type="line"/>
			<point x="816" y="641" type="line"/>
			<point x="816" y="560" type="line"/>
			<point x="955" y="560" type="line"/>
			<point x="955" y="762" type="line"/>
		</contour>
		<contour>
			<point x="445" y="603" type="line"/>
			<point x="445" y="487" type="line"/>
			<point x="855" y="487" type="line"/>
			<point x="855" y="603" type="line"/>
		</contour>
		<contour>
			<point x="334" y="53" type="line"/>
			<point x="334" y="-78" type="line"/>
			<point x="969" y="-78" type="line"/>
			<point x="969" y="53" type="line"/>
		</contour>
		<contour>
			<point x="546" y="222" type="line"/>
			<point x="742" y="222" type="line"/>
			<point x="742" y="185" type="line"/>
			<point x="546" y="185" type="line"/>
		</contour>
		<contour>
			<point x="546" y="356" type="line"/>
			<point x="742" y="356" type="line"/>
			<point x="742" y="318" type="line"/>
			<point x="546" y="318" type="line"/>
		</contour>
		<contour>
			<point x="414" y="459" type="line"/>
			<point x="414" y="81" type="line"/>
			<point x="881" y="81" type="line"/>
			<point x="881" y="459" type="line"/>
		</contour>
		<contour>
			<point x="561" y="829" type="line"/>
			<point x="575" y="786" />
			<point x="590" y="728" />
			<point x="594" y="693" type="curve"/>
			<point x="740" y="726" type="line"/>
			<point x="734" y="761" />
			<point x="716" y="817" />
			<point x="699" y="858" type="curve"/>
		</contour>
		<contour>
			<point x="147" y="855" type="line"/>
			<point x="147" y="-95" type="line"/>
			<point x="278" y="-95" type="line"/>
			<point x="278" y="855" type="line"/>
		</contour>
		<contour>
			<point x="51" y="654" type="line"/>
			<point x="49" y="568" />
			<point x="37" y="456" />
			<point x="15" y="389" type="curve"/>
			<point x="120" y="350" type="line"/>
			<point x="143" y="429" />
			<point x="155" y="550" />
			<point x="154" y="642" type="curve"/>
		</contour>
		<contour>
			<point x="248" y="657" type="line"/>
			<point x="269" y="592" />
			<point x="292" y="507" />
			<point x="302" y="456" type="curve"/>
			<point x="398" y="493" type="line"/>
			<point x="387" y="542" />
			<point x="360" y="625" />
			<point x="338" y="688" type="curve"/>
		</contour>
	</outline>
</glyph>
<glyph name="cid18014" format="1" >
	<advance width="1000"/>
	<outline>
		<contour>
			<point x="447" y="623" type="line"/>
			<point x="447" y="512" type="line"/>
			<point x="871" y="512" type="line"/>
			<point x="871" y="623" type="line"/>
		</contour>
		<contour>
			<point x="360" y="474" type="line"/>
			<point x="360" y="-91" type="line"/>
			<point x="483" y="-91" type="line"/>
			<point x="483" y="366" type="line"/>
			<point x="593" y="366" type="line"/>
			<point x="593" y="474" type="line"/>
		</contour>
		<contour>
			<point x="556" y="474" type="line"/>
			<point x="556" y="38" type="line"/>
			<point x="556" y="28" />
			<point x="553" y="25" />
			<point x="544" y="25" type="curve"/>
			<point x="536" y="25" />
			<point x="510" y="25" />
			<point x="488" y="26" type="curve"/>
			<point x="503" y="-6" />
			<point x="516" y="-58" />
			<point x="519" y="-92" type="curve"/>
			<point x="569" y="-92" />
			<point x="606" y="-90" />
			<point x="637" y="-70" type="curve"/>
			<point x="669" y="-50" />
			<point x="675" y="-17" />
			<point x="675" y="35" type="curve"/>
			<point x="675" y="474" type="line"/>
		</contour>
		<contour>
			<point x="444" y="330" type="line"/>
			<point x="444" y="229" type="line"/>
			<point x="616" y="229" type="line"/>
			<point x="616" y="330" type="line"/>
		</contour>
		<contour>
			<point x="442" y="196" type="line"/>
			<point x="442" y="95" type="line"/>
			<point x="614" y="95" type="line"/>
			<point x="614" y="196" type="line"/>
		</contour>
		<contour>
			<point x="694" y="442" type="line"/>
			<point x="694" y="73" type="line"/>
			<point x="805" y="73" type="line"/>
			<point x="805" y="442" type="line"/>
		</contour>
		<contour>
			<point x="830" y="481" type="line"/>
			<point x="830" y="43" type="line"/>
			<point x="830" y="31" />
			<point x="826" y="28" />
			<point x="813" y="28" type="curve"/>
			<point x="798" y="28" />
			<point x="754" y="28" />
			<point x="712" y="29" type="curve"/>
			<point x="727" y="-4" />
			<point x="743" y="-55" />
			<point x="746" y="-89" type="curve"/>
			<point x="813" y="-89" />
			<point x="863" y="-86" />
			<point x="899" y="-67" type="curve"/>
			<point x="936" y="-48" />
			<point x="945" y="-16" />
			<point x="945" y="41" type="curve"/>
			<point x="945" y="481" type="line"/>
		</contour>
		<contour>
			<point x="641" y="866" type="line"/>
			<point x="570" y="775" />
			<point x="436" y="697" />
			<point x="318" y="653" type="curve"/>
			<point x="351" y="623" />
			<point x="388" y="578" />
			<point x="407" y="544" type="curve"/>
			<point x="535" y="605" />
			<point x="668" y="698" />
			<point x="757" y="813" type="curve"/>
		</contour>
		<contour>
			<point x="705" y="820" type="curve"/>
			<point x="596" y="775" type="line"/>
			<point x="688" y="668" />
			<point x="784" y="602" />
			<point x="902" y="547" type="curve"/>
			<point x="918" y="585" />
			<point x="955" y="629" />
			<point x="986" y="658" type="curve"/>
			<point x="879" y="694" />
			<point x="785" y="740" />
		</contour>
		<contour>
			<point x="142" y="855" type="line"/>
			<point x="142" y="-95" type="line"/>
			<point x="274" y="-95" type="line"/>
			<point x="274" y="855" type="line"/>
		</contour>
		<contour>
			<point x="50" y="654" type="line"/>
			<point x="47" y="568" />
			<point x="33" y="455" />
			<point x="9" y="389" type="curve"/>
			<point x="112" y="350" type="line"/>
			<point x="137" y="429" />
			<point x="151" y="549" />
			<point x="151" y="641" type="curve"/>
		</contour>
		<contour>
			<point x="242" y="664" type="line"/>
			<point x="263" y="596" />
			<point x="287" y="506" />
			<point x="296" y="452" type="curve"/>
			<point x="396" y="490" type="line"/>
			<point x="385" y="542" />
			<point x="358" y="629" />
			<point x="335" y="695" type="curve"/>
		</contour>
	</outline>
</glyph>
<glyph name="cid18017" format="1" >
	<advance width="1000"/>
	<outline>
		<contour>
			<point x="369" y="588" type="line"/>
			<point x="369" y="474" type="line"/>
			<point x="946" y="474" type="line"/>
			<point x="946" y="588" type="line"/>
		</contour>
		<contour>
			<point x="327" y="443" type="line"/>
			<point x="327" y="327" type="line"/>
			<point x="971" y="327" type="line"/>
			<point x="971" y="443" type="line"/>
		</contour>
		<contour>
			<point x="503" y="296" type="line"/>
			<point x="503" y="180" type="line"/>
			<point x="859" y="180" type="line"/>
			<point x="859" y="296" type="line"/>
		</contour>
		<contour>
			<point x="397" y="662" type="line"/>
			<point x="413" y="631" />
			<point x="429" y="588" />
			<point x="434" y="562" type="curve"/>
			<point x="555" y="608" type="line"/>
			<point x="548" y="634" />
			<point x="529" y="674" />
			<point x="511" y="703" type="curve"/>
		</contour>
		<contour>
			<point x="568" y="686" type="line"/>
			<point x="581" y="650" />
			<point x="596" y="602" />
			<point x="603" y="572" type="curve"/>
			<point x="728" y="610" type="line"/>
			<point x="720" y="638" />
			<point x="702" y="685" />
			<point x="687" y="718" type="curve"/>
		</contour>
		<contour>
			<point x="887" y="859" type="line"/>
			<point x="742" y="825" />
			<point x="516" y="801" />
			<point x="315" y="790" type="curve"/>
			<point x="328" y="762" />
			<point x="343" y="716" />
			<point x="346" y="685" type="curve"/>
			<point x="549" y="694" />
			<point x="788" y="715" />
			<point x="963" y="755" type="curve"/>
		</contour>
		<contour>
			<point x="481" y="519" type="line"/>
			<point x="447" y="315" />
			<point x="373" y="138" />
			<point x="249" y="36" type="curve"/>
			<point x="280" y="17" />
			<point x="339" y="-27" />
			<point x="362" y="-49" type="curve"/>
			<point x="486" y="71" />
			<point x="571" y="267" />
			<point x="615" y="498" type="curve"/>
		</contour>
		<contour>
			<point x="558" y="216" type="curve"/>
			<point x="443" y="180" type="line"/>
			<point x="539" y="32" />
			<point x="689" y="-55" />
			<point x="900" y="-91" type="curve"/>
			<point x="918" y="-55" />
			<point x="955" y="1" />
			<point x="984" y="30" type="curve"/>
			<point x="786" y="51" />
			<point x="633" y="114" />
		</contour>
		<contour>
			<point x="808" y="736" type="line"/>
			<point x="792" y="686" />
			<point x="761" y="618" />
			<point x="735" y="574" type="curve"/>
			<point x="851" y="537" type="line"/>
			<point x="879" y="577" />
			<point x="913" y="637" />
			<point x="946" y="698" type="curve"/>
		</contour>
		<contour>
			<point x="831" y="296" type="line"/>
			<point x="831" y="276" type="line"/>
			<point x="769" y="124" />
			<point x="595" y="46" />
			<point x="380" y="15" type="curve"/>
			<point x="407" y="-10" />
			<point x="448" y="-67" />
			<point x="463" y="-99" type="curve"/>
			<point x="688" y="-53" />
			<point x="881" y="48" />
			<point x="969" y="254" type="curve"/>
			<point x="882" y="300" type="line"/>
			<point x="859" y="296" type="line"/>
		</contour>
		<contour>
			<point x="146" y="855" type="line"/>
			<point x="146" y="-95" type="line"/>
			<point x="278" y="-95" type="line"/>
			<point x="278" y="855" type="line"/>
		</contour>
		<contour>
			<point x="53" y="667" type="line"/>
			<point x="48" y="584" />
			<point x="34" y="470" />
			<point x="14" y="402" type="curve"/>
			<point x="124" y="364" type="line"/>
			<point x="143" y="444" />
			<point x="157" y="566" />
			<point x="159" y="654" type="curve"/>
		</contour>
		<contour>
			<point x="235" y="670" type="line"/>
			<point x="259" y="616" />
			<point x="288" y="544" />
			<point x="301" y="501" type="curve"/>
			<point x="397" y="548" type="line"/>
			<point x="382" y="589" />
			<point x="350" y="659" />
			<point x="326" y="710" type="curve"/>
		</contour>
	</outline>
</glyph>
<glyph name="cid34457" format="1" >
	<advance width="1000"/>
	<outline>
		<contour>
			<point x="41" y="34" type="curve"/>
			<point x="145" y="-82" type="line"/>
			<point x="210" y="-10" />
			<point x="277" y="66" />
			<point x="336" y="140" type="curve"/>
			<point x="252" y="249" type="line"/>
			<point x="180" y="166" />
			<point x="98" y="83" />
		</contour>
		<contour>
			<point x="70" y="539" type="line"/>
			<point x="128" y="509" />
			<point x="201" y="461" />
			<point x="234" y="426" type="curve"/>
			<point x="323" y="533" type="line"/>
			<point x="286" y="567" />
			<point x="210" y="610" />
			<point x="153" y="636" type="curve"/>
		</contour>
		<contour>
			<point x="718" y="411" type="line"/>
			<point x="759" y="366" />
			<point x="807" y="303" />
			<point x="826" y="262" type="curve"/>
			<point x="948" y="325" type="line"/>
			<point x="925" y="368" />
			<point x="874" y="427" />
			<point x="832" y="468" type="curve"/>
		</contour>
		<contour>
			<point x="22" y="339" type="line"/>
			<point x="81" y="308" />
			<point x="154" y="258" />
			<point x="187" y="221" type="curve"/>
			<point x="275" y="329" type="line"/>
			<point x="239" y="365" />
			<point x="163" y="410" />
			<point x="105" y="437" type="curve"/>
		</contour>
		<contour>
			<point x="422" y="463" type="line"/>
			<point x="399" y="412" />
			<point x="355" y="359" />
			<point x="308" y="324" type="curve"/>
			<point x="340" y="307" />
			<point x="394" y="272" />
			<point x="420" y="249" type="curve"/>
			<point x="468" y="292" />
			<point x="521" y="361" />
			<point x="552" y="428" type="curve"/>
		</contour>
		<contour>
			<point x="48" y="802" type="line"/>
			<point x="48" y="668" type="line"/>
			<point x="953" y="668" type="line"/>
			<point x="953" y="802" type="line"/>
		</contour>
		<contour>
			<point x="356" y="593" type="line"/>
			<point x="356" y="460" type="line"/>
			<point x="933" y="460" type="line"/>
			<point x="933" y="593" type="line"/>
		</contour>
		<contour>
			<point x="313" y="267" type="line"/>
			<point x="313" y="133" type="line"/>
			<point x="975" y="133" type="line"/>
			<point x="975" y="267" type="line"/>
		</contour>
		<contour>
			<point x="263" y="855" type="line"/>
			<point x="263" y="607" type="line"/>
			<point x="407" y="607" type="line"/>
			<point x="407" y="855" type="line"/>
		</contour>
		<contour>
			<point x="591" y="855" type="line"/>
			<point x="591" y="612" type="line"/>
			<point x="736" y="612" type="line"/>
			<point x="736" y="855" type="line"/>
		</contour>
		<contour>
			<point x="562" y="549" type="line"/>
			<point x="562" y="-95" type="line"/>
			<point x="706" y="-95" type="line"/>
			<point x="706" y="549" type="line"/>
		</contour>
	</outline>
</glyph>
<glyph name="cid34460" format="1" >
	<advance width="1000"/>
	<outline>
		<contour>
			<point x="51" y="808" type="line"/>
			<point x="51" y="687" type="line"/>
			<point x="947" y="687" type="line"/>
			<point x="947" y="808" type="line"/>
		</contour>
		<contour>
			<point x="55" y="256" type="line"/>
			<point x="55" y="147" type="line"/>
			<point x="947" y="147" type="line"/>
			<point x="947" y="256" type="line"/>
		</contour>
		<contour>
			<point x="58" y="502" type="line"/>
			<point x="58" y="395" type="line"/>
			<point x="945" y="395" type="line"/>
			<point x="945" y="502" type="line"/>
		</contour>
		<contour>
			<point x="262" y="855" type="line"/>
			<point x="262" y="639" type="line"/>
			<point x="406" y="639" type="line"/>
			<point x="406" y="855" type="line"/>
		</contour>
		<contour>
			<point x="593" y="855" type="line"/>
			<point x="593" y="648" type="line"/>
			<point x="738" y="648" type="line"/>
			<point x="738" y="855" type="line"/>
		</contour>
		<contour>
			<point x="427" y="582" type="line"/>
			<point x="427" y="298" type="line"/>
			<point x="571" y="298" type="line"/>
			<point x="571" y="582" type="line"/>
		</contour>
		<contour>
			<point x="384" y="326" type="line"/>
			<point x="322" y="245" />
			<point x="232" y="142" />
			<point x="167" y="77" type="curve"/>
			<point x="303" y="39" type="line"/>
			<point x="362" y="102" />
			<point x="446" y="200" />
			<point x="513" y="284" type="curve"/>
		</contour>
		<contour>
			<point x="775" y="664" type="line"/>
			<point x="619" y="632" />
			<point x="343" y="620" />
			<point x="107" y="621" type="curve"/>
			<point x="118" y="596" />
			<point x="131" y="550" />
			<point x="133" y="522" type="curve"/>
			<point x="375" y="519" />
			<point x="666" y="531" />
			<point x="867" y="575" type="curve"/>
		</contour>
		<contour>
			<point x="415" y="462" type="line"/>
			<point x="338" y="399" />
			<point x="184" y="357" />
			<point x="28" y="342" type="curve"/>
			<point x="54" y="317" />
			<point x="87" y="269" />
			<point x="104" y="238" type="curve"/>
			<point x="264" y="266" />
			<point x="416" y="331" />
			<point x="505" y="427" type="curve"/>
		</contour>
		<contour>
			<point x="592" y="462" type="curve"/>
			<point x="500" y="425" type="line"/>
			<point x="591" y="335" />
			<point x="743" y="273" />
			<point x="902" y="247" type="curve"/>
			<point x="917" y="277" />
			<point x="950" y="322" />
			<point x="974" y="346" type="curve"/>
			<point x="821" y="361" />
			<point x="668" y="402" />
		</contour>
		<contour>
			<point x="280" y="49" type="line"/>
			<point x="508" y="8" />
			<point x="729" y="-50" />
			<point x="866" y="-97" type="curve"/>
			<point x="944" y="4" type="line"/>
			<point x="800" y="48" />
			<point x="564" y="103" />
			<point x="346" y="139" type="curve"/>
		</contour>
		<contour>
			<point x="647" y="207" type="line"/>
			<point x="578" y="40" />
			<point x="417" y="20" />
			<point x="70" y="21" type="curve"/>
			<point x="88" y="-7" />
			<point x="105" y="-56" />
			<point x="114" y="-100" type="curve"/>
			<point x="511" y="-81" />
			<point x="697" y="-44" />
			<point x="788" y="189" type="curve"/>
		</contour>
	</outline>
</glyph>
<glyph name="cid34465" format="1" >
	<advance width="1000"/>
	<outline>
		<contour>
			<point x="349" y="587" type="line"/>
			<point x="292" y="473" type="line"/>
			<point x="719" y="473" type="line"/>
			<point x="719" y="587" type="line"/>
		</contour>
		<contour>
			<point x="404" y="412" type="line"/>
			<point x="336" y="383" />
			<point x="226" y="354" />
			<point x="126" y="336" type="curve"/>
			<point x="140" y="310" />
			<point x="158" y="263" />
			<point x="164" y="236" type="curve"/>
			<point x="275" y="252" />
			<point x="407" y="279" />
			<point x="512" y="315" type="curve"/>
		</contour>
		<contour>
			<point x="528" y="375" type="line"/>
			<point x="528" y="257" type="line"/>
			<point x="761" y="257" type="line"/>
			<point x="761" y="-92" type="line"/>
			<point x="902" y="-92" type="line"/>
			<point x="902" y="375" type="line"/>
		</contour>
		<contour>
			<point x="203" y="61" type="line"/>
			<point x="203" y="-59" type="line"/>
			<point x="820" y="-59" type="line"/>
			<point x="820" y="61" type="line"/>
		</contour>
		<contour>
			<point x="235" y="219" type="line"/>
			<point x="235" y="105" type="line"/>
			<point x="488" y="105" type="line"/>
			<point x="488" y="219" type="line"/>
		</contour>
		<contour>
			<point x="541" y="219" type="line"/>
			<point x="541" y="105" type="line"/>
			<point x="816" y="105" type="line"/>
			<point x="816" y="219" type="line"/>
		</contour>
		<contour>
			<point x="297" y="653" type="line"/>
			<point x="244" y="563" />
			<point x="144" y="481" />
			<point x="41" y="432" type="curve"/>
			<point x="71" y="408" />
			<point x="122" y="354" />
			<point x="144" y="327" type="curve"/>
			<point x="251" y="390" />
			<point x="364" y="495" />
			<point x="432" y="608" type="curve"/>
		</contour>
		<contour>
			<point x="213" y="855" type="line"/>
			<point x="213" y="621" type="line"/>
			<point x="355" y="621" type="line"/>
			<point x="355" y="855" type="line"/>
		</contour>
		<contour>
			<point x="646" y="855" type="line"/>
			<point x="646" y="621" type="line"/>
			<point x="788" y="621" type="line"/>
			<point x="788" y="855" type="line"/>
		</contour>
		<contour>
			<point x="60" y="802" type="line"/>
			<point x="60" y="680" type="line"/>
			<point x="479" y="680" type="line"/>
			<point x="479" y="802" type="line"/>
		</contour>
		<contour>
			<point x="671" y="587" type="line"/>
			<point x="671" y="565" type="line"/>
			<point x="657" y="532" />
			<point x="616" y="473" />
			<point x="578" y="439" type="curve"/>
			<point x="603" y="422" />
			<point x="647" y="387" />
			<point x="667" y="363" type="curve"/>
			<point x="724" y="408" />
			<point x="785" y="480" />
			<point x="828" y="540" type="curve"/>
			<point x="732" y="594" type="line"/>
			<point x="705" y="587" type="line"/>
		</contour>
		<contour>
			<point x="126" y="336" type="line"/>
			<point x="126" y="-92" type="line"/>
			<point x="265" y="-92" type="line"/>
			<point x="265" y="336" type="line"/>
		</contour>
		<contour>
			<point x="520" y="803" type="line"/>
			<point x="520" y="681" type="line"/>
			<point x="939" y="681" type="line"/>
			<point x="939" y="803" type="line"/>
		</contour>
	</outline>
</glyph>
<glyph name="cid34468" format="1" >
	<advance width="1000"/>
	<outline>
		<contour>
			<point x="519" y="640" type="line"/>
			<point x="507" y="596" />
			<point x="484" y="537" />
			<point x="462" y="494" type="curve"/>
			<point x="581" y="463" type="line"/>
			<point x="610" y="499" />
			<point x="650" y="554" />
			<point x="686" y="612" type="curve"/>
		</contour>
		<contour>
			<point x="245" y="384" type="line"/>
			<point x="245" y="271" type="line"/>
			<point x="853" y="271" type="line"/>
			<point x="853" y="384" type="line"/>
		</contour>
		<contour>
			<point x="245" y="228" type="line"/>
			<point x="245" y="115" type="line"/>
			<point x="853" y="115" type="line"/>
			<point x="853" y="228" type="line"/>
		</contour>
		<contour>
			<point x="245" y="67" type="line"/>
			<point x="245" y="-54" type="line"/>
			<point x="939" y="-54" type="line"/>
			<point x="939" y="67" type="line"/>
		</contour>
		<contour>
			<point x="231" y="645" type="line"/>
			<point x="187" y="535" />
			<point x="107" y="427" />
			<point x="21" y="362" type="curve"/>
			<point x="51" y="335" />
			<point x="103" y="277" />
			<point x="125" y="248" type="curve"/>
			<point x="219" y="331" />
			<point x="315" y="468" />
			<point x="372" y="603" type="curve"/>
		</contour>
		<contour>
			<point x="464" y="472" type="line"/>
			<point x="464" y="26" type="line"/>
			<point x="610" y="26" type="line"/>
			<point x="610" y="472" type="line"/>
		</contour>
		<contour>
			<point x="316" y="546" type="line"/>
			<point x="244" y="546" type="line"/>
			<point x="173" y="476" type="line"/>
			<point x="173" y="-95" type="line"/>
			<point x="316" y="-95" type="line"/>
			<point x="316" y="426" type="line"/>
			<point x="901" y="426" type="line"/>
			<point x="901" y="546" type="line"/>
		</contour>
		<contour>
			<point x="252" y="855" type="line"/>
			<point x="252" y="616" type="line"/>
			<point x="394" y="616" type="line"/>
			<point x="394" y="855" type="line"/>
		</contour>
		<contour>
			<point x="599" y="855" type="line"/>
			<point x="599" y="616" type="line"/>
			<point x="741" y="616" type="line"/>
			<point x="741" y="855" type="line"/>
		</contour>
		<contour>
			<point x="53" y="804" type="line"/>
			<point x="53" y="677" type="line"/>
			<point x="949" y="677" type="line"/>
			<point x="949" y="804" type="line"/>
		</contour>
	</outline>
</glyph>
